<svg width="198" height="189" viewBox="0 0 198 189" fill="none" xmlns="http://www.w3.org/2000/svg">
<path d="M33.5373 50V14.1706L24.9985 20.0305V18.6911L35.9371 10.9337H38.1695V50H33.5373Z" fill="#CFB895"/>
<path d="M22.9805 73.5813V71.814H23.6874C24.1153 70.5583 24.3571 69.163 24.3571 67.5353C24.3571 67.2934 24.3292 67.0144 24.3013 66.7819L24.2269 65.4889H28.6172V71.814H29.4172V73.5813H28.7103V72H23.6874V73.5813H22.9805ZM23.8828 71.814H27.7801V65.675H24.7571L24.6734 67.126C24.5153 69.1909 24.292 70.549 23.8828 71.814ZM33.7073 72.1395C31.7633 72.1395 30.3402 70.7071 30.3402 68.7445C30.3402 66.7726 31.7633 65.3494 33.7073 65.3494C35.6607 65.3494 37.0745 66.7726 37.0745 68.7445C37.0745 70.7071 35.6607 72.1395 33.7073 72.1395ZM33.7073 71.9628C35.2049 71.9628 36.2188 70.7257 36.2188 68.7445C36.2188 66.7539 35.2049 65.5261 33.7073 65.5261C32.2098 65.5261 31.1959 66.7539 31.1959 68.7445C31.1959 70.7257 32.2098 71.9628 33.7073 71.9628ZM38.7188 72V65.4889H39.5745L42.1045 70.9675L44.6159 65.4889H45.4251V72H44.588V66.0005L41.8441 72H41.6487L38.9141 66.0563V72H38.7188Z" fill="white"/>
<path d="M143.698 50.7813C135.382 50.7813 129.689 46.205 129.076 39.2289H130.192C130.75 44.9772 135.494 48.8838 142.079 48.8838C149.055 48.8838 153.743 44.1959 153.743 37.443C153.743 30.9691 149.278 26.4486 142.693 26.4486C137.67 26.4486 133.54 28.7926 131.754 32.476L130.638 32.4201L133.931 10.9337H156.813V15.0077H134.377L132.089 30.0762C134.433 26.9509 138.675 25.1092 143.921 25.1092C152.515 25.1092 158.375 30.2436 158.375 37.5546C158.375 45.312 152.348 50.7813 143.698 50.7813ZM178.061 10.0965C187.827 10.0965 194.58 18.3563 194.58 30.4668C194.58 42.7448 187.548 50.8371 177.614 50.8371C170.471 50.8371 165.113 46.5398 164.22 40.6241H165.392C166.173 45.8143 170.806 49.3303 176.889 49.3303C184.255 49.3303 189.948 43.3587 189.948 30.4668C189.948 29.2948 189.892 28.1787 189.781 27.1183C188.385 32.755 183.363 36.3268 176.61 36.3268C168.294 36.3268 162.769 30.5226 162.769 23.2675C162.769 16.2355 168.908 10.0965 178.061 10.0965ZM178.005 11.1569C171.977 11.1569 167.401 16.5704 167.401 23.1558C167.401 29.8529 171.643 34.8199 178.005 34.8199C184.144 34.8199 188.776 30.3552 188.999 24.7743C188.999 18.133 184.59 11.1569 178.005 11.1569Z" fill="#CFB895"/>
<path d="M141.132 72V65.4889H141.969V68.6515H142.89L145.643 65.4889H145.885L143.504 68.2236L146.304 72H145.308L142.927 68.8375H141.969V72H141.132ZM147.672 72V65.4889H149.923C151.486 65.4889 152.379 66.1121 152.379 67.126C152.379 67.9259 151.839 68.5026 150.9 68.6887V68.7259C152.007 68.8654 152.648 69.47 152.648 70.3257C152.648 71.3582 151.746 72 150.128 72H147.672ZM148.509 68.6515H149.951C151.03 68.6515 151.616 68.1213 151.616 67.1632C151.616 66.2052 151.011 65.675 149.923 65.675H148.509V68.6515ZM148.509 71.814H150.044C151.197 71.814 151.821 71.2838 151.821 70.3257C151.821 69.3677 151.16 68.8282 150.044 68.8282H148.509V71.814ZM153.235 72L155.886 65.4889H156.547L159.216 72H158.314L157.43 69.8607H154.296L153.431 72H153.235ZM154.37 69.6746H157.356L155.877 66.0842H155.858L154.37 69.6746ZM160.307 72V65.4889H162.223C163.86 65.4889 164.8 66.1866 164.8 67.3492C164.8 68.5026 163.86 69.2095 162.223 69.2095H161.144V72H160.307ZM161.144 69.0235H162.205C163.312 69.0235 163.963 68.4003 163.963 67.3492C163.963 66.2889 163.312 65.675 162.205 65.675H161.144V69.0235ZM167.643 72V65.675H165.252V65.4889H170.871V65.675H168.48V72H167.643ZM172.116 72.1581V65.4889H172.953V70.8001L176.906 65.4889H177.557V72H176.72V66.0935L172.265 72.1581H172.116ZM179.801 72V65.4889H181.717C183.354 65.4889 184.293 66.1866 184.293 67.3492C184.293 68.5026 183.354 69.2095 181.717 69.2095H180.638V72H179.801ZM180.638 69.0235H181.698C182.805 69.0235 183.456 68.4003 183.456 67.3492C183.456 66.2889 182.805 65.675 181.698 65.675H180.638V69.0235Z" fill="white"/>
<path d="M9.57963 158.181V157.121L26.3223 145.178C28.7779 143.392 31.2894 141.048 32.9078 138.704C30.7871 140.546 27.7734 141.662 24.3132 141.662C15.4954 141.662 9.13315 136.751 9.13315 129.998C9.13315 123.189 15.4396 118.278 24.3132 118.278C33.1869 118.278 39.6049 123.022 39.6049 129.942C39.6049 136.137 33.8566 141.327 26.6572 146.238L15.607 153.94H40.3304V158.181H9.57963ZM24.3132 140.601C30.9545 140.601 35.0286 136.248 35.0286 130.556C35.0286 123.468 30.6196 119.226 24.3132 119.226C18.0626 119.226 13.6537 123.635 13.6537 129.998C13.6537 136.192 18.0626 140.601 24.3132 140.601ZM51.1094 158.181V122.352L42.5706 128.212V126.872L53.5092 119.115H55.7416V158.181H51.1094Z" fill="#CFB895"/>
<path d="M1.4492 180.181V173.67H6.83478V180.181H5.99764V173.856H2.28634V180.181H1.4492ZM8.51195 180.293C8.27011 180.293 8.13059 180.265 7.97247 180.181V179.344C8.21431 179.409 8.28872 179.428 8.53986 179.428C9.18166 179.428 9.52582 179.056 9.61883 178.209C9.77696 177.484 9.83277 176.386 9.76766 174.749L9.70255 173.67H13.9998V180.181H13.1627V173.856H10.2048L10.1211 174.889C10.0095 176.944 9.86997 178.209 9.63744 179.102C9.4235 179.893 9.04214 180.293 8.51195 180.293ZM15.2601 180.181L17.911 173.67H18.5714L21.2409 180.181H20.3387L19.455 178.042H16.3204L15.4554 180.181H15.2601ZM16.3948 177.856H19.3806L17.9017 174.265H17.8831L16.3948 177.856ZM22.3322 180.181V173.67H23.1693V176.833H26.8806V173.67H27.7178V180.181H26.8806V177.019H23.1693V180.181H22.3322ZM29.9623 180.339V173.67H30.7995V178.981L34.7526 173.67H35.4037V180.181H34.5666V174.275L30.1112 180.339H29.9623ZM37.647 180.181V173.67H39.5631C41.2001 173.67 42.1396 174.368 42.1396 175.53C42.1396 176.684 41.2001 177.391 39.5631 177.391H38.4841V180.181H37.647ZM38.4841 177.205H39.5445C40.6514 177.205 41.3025 176.582 41.3025 175.53C41.3025 174.47 40.6514 173.856 39.5445 173.856H38.4841V177.205ZM46.5515 180.321C44.6075 180.321 43.1843 178.888 43.1843 176.926C43.1843 174.954 44.6075 173.531 46.5515 173.531C48.5048 173.531 49.9186 174.954 49.9186 176.926C49.9186 178.888 48.5048 180.321 46.5515 180.321ZM46.5515 180.144C48.049 180.144 49.0629 178.907 49.0629 176.926C49.0629 174.935 48.049 173.707 46.5515 173.707C45.054 173.707 44.0401 174.935 44.0401 176.926C44.0401 178.907 45.054 180.144 46.5515 180.144ZM51.5629 180.181V173.67H53.8139C55.3765 173.67 56.2695 174.293 56.2695 175.307C56.2695 176.107 55.73 176.684 54.7905 176.87V176.907C55.8974 177.047 56.5392 177.651 56.5392 178.507C56.5392 179.539 55.637 180.181 54.0185 180.181H51.5629ZM52.4 176.833H53.8418C54.9207 176.833 55.5067 176.302 55.5067 175.344C55.5067 174.386 54.9021 173.856 53.8139 173.856H52.4V176.833ZM52.4 179.995H53.9348C55.0882 179.995 55.7114 179.465 55.7114 178.507C55.7114 177.549 55.051 177.009 53.9348 177.009H52.4V179.995ZM58.1212 180.181V173.67H58.9583V176.833H59.8792L62.6324 173.67H62.8743L60.4931 176.405L63.2928 180.181H62.2976L59.9164 177.019H58.9583V180.181H58.1212ZM63.5661 180.181L66.2171 173.67H66.8775L69.547 180.181H68.6448L67.7611 178.042H64.6265L63.7615 180.181H63.5661ZM64.7009 177.856H67.6867L66.2078 174.265H66.1892L64.7009 177.856Z" fill="white"/>
<path d="M162.827 159.018C153.06 159.018 146.307 150.703 146.307 138.648C146.307 126.37 153.339 118.278 163.273 118.278C170.417 118.278 175.774 122.575 176.667 128.491H175.495C174.714 123.301 170.082 119.785 163.999 119.785C156.632 119.785 150.939 125.756 150.939 138.648C150.939 139.82 150.995 140.936 151.163 141.997C152.502 136.36 157.525 132.788 164.334 132.788C172.593 132.788 178.118 138.592 178.118 145.847C178.118 152.879 171.979 159.018 162.827 159.018ZM162.883 157.958C168.91 157.958 173.542 152.544 173.542 145.959C173.542 139.206 169.245 134.295 162.883 134.295C156.799 134.295 152.111 138.76 151.888 144.341C151.888 150.982 156.297 157.958 162.883 157.958Z" fill="#CFB895"/>
<path d="M130.029 180.181V173.67H135.414V180.181H134.577V173.856H130.866V180.181H130.029ZM137.659 180.181V173.67H141.38V173.856H138.496V176.833H140.58V177.019H138.496V179.995H141.807V180.181H137.659ZM143.118 180.181V173.67H143.955V176.833H147.667V173.67H148.504V180.181H147.667V177.019H143.955V180.181H143.118ZM152.134 180.181V173.856H149.744V173.67H155.362V173.856H152.971V180.181H152.134ZM155.614 180.181L158.079 177.009L155.642 173.67H156.619L158.693 176.414L160.851 173.67H161.084L158.805 176.572L161.428 180.181H160.451L158.2 177.168L155.847 180.181H155.614ZM161.589 180.181L164.24 173.67H164.9L167.57 180.181H166.667L165.784 178.042H162.649L161.784 180.181H161.589ZM162.724 177.856H165.709L164.23 174.265H164.212L162.724 177.856ZM169.761 180.321C169.026 180.321 168.375 179.772 168.375 178.777V178.526H168.561V178.777C168.561 179.512 168.98 180.06 169.649 180.06C170.263 180.06 170.607 179.688 170.607 179.177C170.607 178.916 170.524 178.628 170.347 178.34L167.501 173.67H168.449L170.831 177.567C170.998 177.837 171.175 178.219 171.231 178.6L172.905 173.67H173.091L171.333 178.926C171.017 179.856 170.533 180.321 169.761 180.321ZM176.937 180.321C174.984 180.321 173.635 178.944 173.635 176.926C173.635 174.898 174.984 173.531 176.937 173.531C178.518 173.531 179.718 174.591 179.932 176.135H179.746C179.542 174.758 178.528 173.81 177.17 173.81C175.579 173.81 174.491 175.065 174.491 176.926C174.491 178.777 175.588 180.032 177.17 180.032C178.528 180.032 179.542 179.084 179.746 177.716H179.932C179.718 179.26 178.518 180.321 176.937 180.321ZM184.387 180.321C182.443 180.321 181.02 178.888 181.02 176.926C181.02 174.954 182.443 173.531 184.387 173.531C186.341 173.531 187.754 174.954 187.754 176.926C187.754 178.888 186.341 180.321 184.387 180.321ZM184.387 180.144C185.885 180.144 186.899 178.907 186.899 176.926C186.899 174.935 185.885 173.707 184.387 173.707C182.89 173.707 181.876 174.935 181.876 176.926C181.876 178.907 182.89 180.144 184.387 180.144ZM189.399 180.181V173.67H191.65C193.212 173.67 194.105 174.293 194.105 175.307C194.105 176.107 193.566 176.684 192.626 176.87V176.907C193.733 177.047 194.375 177.651 194.375 178.507C194.375 179.539 193.473 180.181 191.854 180.181H189.399ZM190.236 176.833H191.677C192.756 176.833 193.342 176.302 193.342 175.344C193.342 174.386 192.738 173.856 191.65 173.856H190.236V176.833ZM190.236 179.995H191.77C192.924 179.995 193.547 179.465 193.547 178.507C193.547 177.549 192.887 177.009 191.77 177.009H190.236V179.995Z" fill="white"/>
<line x1="89.4832" y1="38.3993" x2="106.757" y2="38.3993" stroke="#CFB895" stroke-width="0.664394"/>
<line x1="89.4832" y1="146.581" x2="106.757" y2="146.581" stroke="#CFB895" stroke-width="0.664394"/>
</svg>
