<svg width="52" height="52" viewBox="0 0 52 52" fill="none" xmlns="http://www.w3.org/2000/svg">
<circle cx="26" cy="26" r="25" fill="white" stroke="#172343" stroke-width="2"/>
<path d="M26.0578 10C34.8375 10 42 17.1625 42 26.0578C42 34.8375 34.8375 42 26.0578 42C17.1625 42 10 34.8375 10 26.0578C10 17.1625 17.1625 10 26.0578 10ZM19.5884 34.1444L22.5921 30.4477L20.9747 25.2491L16.0072 23.1697L11.1552 26.7509L10.9242 26.5199C11.0397 29.5235 11.9639 32.1805 13.4657 34.491L13.5812 34.1444H19.5884ZM23.2852 30.9097L20.2816 34.722L22.13 40.3827L21.7834 40.4982C24.556 41.3069 27.444 41.3069 30.2166 40.4982L29.9856 40.3827L31.8339 34.722L28.7148 30.9097H23.2852ZM29.4079 30.4477L32.4116 34.1444H38.4188L38.5343 34.491C40.1516 32.1805 41.0758 29.5235 41.1913 26.5199L40.8448 26.7509L35.9928 23.1697L31.1408 25.2491L29.4079 30.4477ZM30.7942 24.4404L35.7617 22.4765L37.6101 16.7004H37.9567C36.2238 14.5054 33.7978 12.7726 31.1408 11.7329L31.2563 12.0794L26.4043 15.6606V21.3213L30.7942 24.4404ZM16.2383 22.4765L21.2058 24.4404L25.5957 21.3213V15.6606L20.7437 12.1949L20.8592 11.7329C18.2022 12.7726 15.7762 14.5054 14.0433 16.7004H14.3899L16.2383 22.4765ZM21.8989 11.5018L21.7834 11.8484L26.0578 14.852L30.3321 11.8484L30.2166 11.5018C27.444 10.6931 24.556 10.6931 21.8989 11.5018ZM38.5343 17.6245H38.1877L36.5704 22.5921L40.8448 25.7112L41.1913 25.4801C41.0758 22.5921 40.1516 19.8195 38.5343 17.6245ZM37.9567 35.4152L37.8412 34.9531H32.5271L30.9097 40.0361L31.2563 40.2671C33.9134 39.2274 36.2238 37.6101 37.9567 35.4152ZM20.8592 40.2671L21.0903 40.0361L19.4729 34.9531H14.2744L14.1588 35.4152C15.8917 37.6101 18.2022 39.2274 20.8592 40.2671ZM10.9242 25.4801L11.1552 25.7112L15.4296 22.5921L13.8123 17.6245H13.4657C11.9639 19.8195 11.0397 22.5921 10.9242 25.4801ZM30.2166 25.1336L26.0578 22.0144L21.7834 25.1336L23.4007 30.1011H28.5993L30.2166 25.1336Z" fill="black"/>
</svg>
