<svg width="52" height="52" fill="none" xmlns="http://www.w3.org/2000/svg"><circle cx="26" cy="26" r="25" fill="#fff" stroke="#172343" stroke-width="2"/><path d="M18.185 14a.558.558 0 0 0-.356.183.54.54 0 0 0-.138.371V36.91h-1.11a.564.564 0 0 0-.436.178.543.543 0 0 0-.092.6.548.548 0 0 0 .314.28.564.564 0 0 0 .214.032h3.33a.563.563 0 0 0 .397-.157.544.544 0 0 0 .122-.598.543.543 0 0 0-.305-.296.565.565 0 0 0-.215-.04H18.8v-9.881c1.241-.5 2.302-.75 3.33-.75 2.853 0 5.454 1.608 8.59 1.636 1.546.013 3.194-.347 5.011-1.44a.55.55 0 0 0 .269-.469v-10.36a.539.539 0 0 0-.281-.475.562.562 0 0 0-.56.007c-1.598.961-3.108 1.302-4.421 1.287-1.41-.017-2.738-.464-4.127-.938-1.388-.473-2.84-.97-4.481-.97-1.034 0-2.19.257-3.33.672v-.673a.536.536 0 0 0-.162-.394.555.555 0 0 0-.4-.16h-.053Zm3.945 1.645c1.41 0 2.73.439 4.117.911 1.387.473 2.836.978 4.474.997 1.273.015 2.701-.287 4.17-1.005v9.133c-1.54.87-2.861 1.152-4.153 1.141-2.73-.024-5.358-1.636-8.608-1.636-1.082 0-2.167.235-3.33.665v-9.456c1.177-.473 2.379-.75 3.33-.75Z" fill="#000"/></svg>