<svg width="52" height="52" fill="none" xmlns="http://www.w3.org/2000/svg"><circle cx="26" cy="26" r="25" fill="#fff" stroke="#172343" stroke-width="2"/><path d="M8.41 37h34.136c.272 0 .454-.184.454-.46 0-.275-.182-.459-.455-.459h-4.318v-4.776c2.455-.368 4.273-3.812 4.273-8.13 0-4.593-2.09-8.175-4.727-8.175-2.637 0-4.728 3.582-4.728 8.175 0 4.318 1.864 7.762 4.273 8.13v4.73h-5.454V33.05c0-.275-.182-.46-.455-.46h-5.545v-1.285c0-.965.681-1.7 1.5-1.7.818 0 1.5.781 1.5 1.7 0 .275.181.46.454.46s.455-.185.455-.46c0-1.47-1.091-2.618-2.41-2.618-.59 0-1.09.23-1.5.597v-2.159c0-.735.5-1.332 1.183-1.332.681 0 1.181.597 1.181 1.332 0 .276.182.46.455.46s.454-.184.454-.46c0-1.24-.909-2.25-2.09-2.25-.41 0-.819.137-1.182.367v-1.515c0-.506.318-.873.772-.873.455 0 .773.413.773.873 0 .275.182.459.455.459.272 0 .454-.184.454-.46 0-1.01-.727-1.79-1.682-1.79-.5 0-.909.229-1.227.55a1.55 1.55 0 0 0-1.227-.55c-.91 0-1.682.826-1.682 1.79 0 .276.182.46.454.46.273 0 .455-.184.455-.46 0-.505.318-.872.773-.872.454 0 .773.413.773.873v1.561a2.011 2.011 0 0 0-1.182-.367c-1.137 0-2.091 1.01-2.091 2.25 0 .276.182.46.454.46.273 0 .455-.184.455-.46 0-.735.5-1.332 1.182-1.332.681 0 1.181.597 1.181 1.332v2.159c-.409-.368-.954-.597-1.5-.597-1.318 0-2.409 1.194-2.409 2.618 0 .275.182.459.455.459s.454-.184.454-.46c0-.964.682-1.699 1.5-1.699.819 0 1.5.781 1.5 1.7v1.286H19.41c-.273 0-.454.184-.454.459v2.985h-5.228v-4.776C16.137 30.983 18 28.09 18 24.553c0-3.766-2.136-6.797-4.727-6.797s-4.728 3.031-4.728 6.797c0 3.537 1.91 6.43 4.273 6.752v4.73H8.455c-.273 0-.455.184-.455.46 0 .275.182.505.41.505Zm25.5-13.825c0-3.95 1.772-7.256 3.817-7.256 2.046 0 3.819 3.306 3.819 7.256 0 3.629-1.5 6.752-3.364 7.211v-1.883c.318-.275.909-.964 2.182-2.618.136-.184.136-.505-.091-.643-.182-.138-.5-.138-.637.092-.5.643-1.045 1.332-1.454 1.837v-6.384c0-.275-.182-.46-.455-.46-.272 0-.454.184-.454.46v3.537l-1.228-1.47c-.181-.184-.454-.23-.636-.046s-.227.46-.045.643l1.954 2.25v4.64c-1.909-.414-3.409-3.537-3.409-7.166Zm-14.046 10.38h11.09v2.48h-11.09v-2.48ZM9.409 24.553c0-3.26 1.727-5.879 3.818-5.879s3.819 2.618 3.819 5.88c0 2.985-1.5 5.465-3.364 5.832v-1.883c.318-.275.909-.964 2.182-2.618.136-.184.136-.505-.091-.643-.182-.138-.5-.138-.637.092-.5.643-1.045 1.332-1.454 1.837v-6.384c0-.275-.182-.46-.455-.46s-.454.184-.454.46v3.537l-1.273-1.47c-.182-.184-.454-.23-.636-.046s-.228.46-.046.643l1.955 2.25v4.64c-1.864-.276-3.364-2.756-3.364-5.788Z" fill="#000"/></svg>