<svg width="118" height="41" fill="none" xmlns="http://www.w3.org/2000/svg"><g clip-path="url(#a)"><path d="M36.224 0v-.15H34.559v31.91L27.561-.032l-.026-.118H25.83l.04.182 6.91 31.384L18.92-.06l-.04-.09h-1.818l.093.21 13.52 30.703L10.3-.083l-.044-.067H8.263l.154.233 19.67 29.778L1.702-.099 1.656-.15H-.15v39.711H1.515V7.651l6.998 31.792.026.118h1.707l-.04-.182-6.91-31.383 13.859 31.475.039.09h1.818l-.093-.21L5.401 8.648l20.373 30.846.045.067h1.992l-.154-.233L7.987 9.55l26.386 29.96.045.051h1.806V0Z" fill="#CFB895" stroke="#CFB895" stroke-width=".3"/><path d="M48.483 0h8.733L79.05 26.92V0h1.19v41h-1.305L49.687 5.293v34.129h-1.19L48.483 0ZM85.237 0h14.115C110.347 0 116.3 3.717 116.3 9.742c0 5.014-3.911 8.617-10.205 9.631v.226C113.41 20.274 118 23.99 118 29.284c0 6.139-6.122 10.138-17.854 10.138h-14.91V0Zm14.398 19.148c5.669 0 8.559-3.042 8.559-9.01s-3.002-9.013-8.842-9.013h-5.047v18.023h5.33Zm-.455 19.149c6.52 0 9.866-3.043 9.866-9.013 0-5.911-3.461-9.067-9.978-9.067h-4.763v18.08h4.875Z" fill="#fff"/></g><defs><clipPath id="a"><path fill="#fff" d="M0 0h118v41H0z"/></clipPath></defs></svg>