<svg xmlns="http://www.w3.org/2000/svg" width="52" height="52" fill="none"><circle cx="26" cy="26" r="25" fill="#fff" stroke="#172343" stroke-width="2"/><path fill="#000" d="m41.396 23.123-13.99-9.093c-.648-.422-1.627-.422-2.276 0l-13.988 9.093c-.385.25-.605.622-.605 1.023 0 .401.22.774.604 1.024l5.751 3.738v4.614c0 2.308 4.717 3.516 9.376 3.516 4.66 0 9.376-1.208 9.376-3.516v-4.614l2.735-1.778v7.508a1.369 1.369 0 0 0-.375.472l-1.08 2.16c-.207.414-.206.847.005 1.187.21.34.596.534 1.06.534h1.953c.463 0 .85-.195 1.06-.534.21-.34.21-.773.004-1.187l-1.08-2.16a1.37 1.37 0 0 0-.375-.472v-8.27l1.845-1.198c.384-.25.604-.623.604-1.024 0-.4-.22-.774-.604-1.023Zm-1.439 14.671.012.025H37.96a.307.307 0 0 1 .012-.025l.992-1.984.992 1.984Zm-5.485-4.272c0 .956-3.196 2.344-8.204 2.344-5.008 0-8.204-1.388-8.204-2.344V25.71c0-.956 3.197-2.344 8.204-2.344 5.008 0 8.204 1.388 8.204 2.344v7.813Zm6.285-9.335-2.341 1.522h-.037v.024l-2.735 1.777V25.71c0-2.308-4.716-3.516-9.376-3.516-4.659 0-9.376 1.208-9.376 3.516v1.801l-5.112-3.323a.39.39 0 0 1-.053-.04.381.381 0 0 1 .053-.041l13.989-9.093c.257-.167.742-.168.999 0l13.989 9.092c.024.016.04.03.053.041a.36.36 0 0 1-.053.041Z"/><path fill="#000" d="M33.254 31.319c-1.724-.71-4.27-1.117-6.985-1.117-2.715 0-5.261.407-6.986 1.117a.39.39 0 0 0 .297.723c1.634-.673 4.072-1.059 6.689-1.059s5.054.386 6.687 1.059a.391.391 0 0 0 .298-.723Z"/></svg>