<svg xmlns="http://www.w3.org/2000/svg" width="52" height="52" fill="none"><circle cx="26" cy="26" r="25" fill="#fff" stroke="#172343" stroke-width="2"/><path fill="#000" d="M43.61 33.833h-8.714v-1.65h8.715a.35.35 0 0 0 .35-.354c0-.197-.155-.393-.35-.393-3.735 0-7.12-4.324-8.715-11.007v-7.075a.35.35 0 1 0-.7 0v6.8c-1.557 3.105-4.941 5.11-8.715 5.11-3.736 0-7.12-2.005-8.716-5.11v-6.8a.35.35 0 1 0-.7 0v7.075c-1.556 6.683-4.98 11.007-8.715 11.007a.35.35 0 0 0-.35.353.35.35 0 0 0 .35.354h8.715v1.651H7.428a.35.35 0 0 0-.35.354.35.35 0 0 0 .35.354h8.715v3.144a.35.35 0 1 0 .7 0v-3.144h17.391v3.144a.35.35 0 1 0 .7 0v-3.144h8.716a.35.35 0 0 0 .35-.354c0-.157-.194-.315-.39-.315Zm-2.761-2.397h-5.953v-8.452c1.4 4.167 3.502 7.194 5.953 8.451Zm-6.614-9.906v9.905H30.46v-6.642a10.491 10.491 0 0 0 3.773-3.263Zm-9.066 9.905h-3.851v-6.328c1.206.51 2.49.786 3.851.825v5.504Zm.7-5.463c1.362-.04 2.685-.315 3.852-.826v6.29H25.87v-5.464Zm-5.29-1.18v6.643h-3.775V21.53c.934 1.376 2.257 2.476 3.774 3.262ZM10.19 31.436c2.451-1.297 4.591-4.284 5.953-8.45v8.45H10.19Zm6.614 2.398v-1.65h17.392v1.65H16.804Z"/></svg>