<svg width="52" height="52" viewBox="0 0 52 52" fill="none" xmlns="http://www.w3.org/2000/svg">
<circle cx="26" cy="26" r="25" fill="white" stroke="#172343" stroke-width="2"/>
<path d="M13.5859 21.2095H39.2778C39.4048 21.2096 39.5284 21.1684 39.6299 21.0922C39.7314 21.0159 39.8054 20.9087 39.8407 20.7867C39.8759 20.6647 39.8705 20.5345 39.8252 20.4158C39.78 20.2972 39.6974 20.1965 39.5899 20.1289L26.7439 12.0889C26.6509 12.0308 26.5434 12 26.4338 12C26.3241 12 26.2166 12.0308 26.1236 12.0889L13.2738 20.1289C13.1663 20.1965 13.0836 20.2972 13.0384 20.4158C12.9932 20.5345 12.9877 20.6647 13.023 20.7867C13.0582 20.9087 13.1322 21.0159 13.2337 21.0922C13.3353 21.1684 13.4589 21.2096 13.5859 21.2095ZM26.4318 13.2748L37.2415 20.0392H15.6222L26.4318 13.2748Z" fill="black"/>
<path d="M15.3957 35.9006C15.3957 36.0558 15.4573 36.2046 15.5671 36.3143C15.6768 36.4241 15.8256 36.4857 15.9808 36.4857H36.8823C37.0375 36.4857 37.1864 36.4241 37.2961 36.3143C37.4058 36.2046 37.4675 36.0558 37.4675 35.9006C37.4675 35.7454 37.4058 35.5966 37.2961 35.4868C37.1864 35.3771 37.0375 35.3154 36.8823 35.3154H15.9808C15.8256 35.3154 15.6768 35.3771 15.5671 35.4868C15.4573 35.5966 15.3957 35.7454 15.3957 35.9006Z" fill="black"/>
<path d="M39.2779 38.5338H13.5859C13.4307 38.5338 13.2819 38.5954 13.1722 38.7051C13.0624 38.8149 13.0008 38.9637 13.0008 39.1189C13.0008 39.2741 13.0624 39.4229 13.1722 39.5327C13.2819 39.6424 13.4307 39.704 13.5859 39.704H39.2779C39.433 39.704 39.5819 39.6424 39.6916 39.5327C39.8014 39.4229 39.863 39.2741 39.863 39.1189C39.863 38.9637 39.8014 38.8149 39.6916 38.7051C39.5819 38.5954 39.433 38.5338 39.2779 38.5338Z" fill="black"/>
<path d="M27.0291 34.2934V22.2354C27.0291 22.0802 26.9674 21.9314 26.8577 21.8217C26.7479 21.7119 26.5991 21.6503 26.4439 21.6503C26.2887 21.6503 26.1399 21.7119 26.0302 21.8217C25.9204 21.9314 25.8588 22.0802 25.8588 22.2354V34.2934C25.8588 34.4486 25.9204 34.5974 26.0302 34.7071C26.1399 34.8169 26.2887 34.8785 26.4439 34.8785C26.5991 34.8785 26.7479 34.8169 26.8577 34.7071C26.9674 34.5974 27.0291 34.4486 27.0291 34.2934Z" fill="black"/>
<path d="M31.5615 34.2934V22.2354C31.5615 22.0802 31.4999 21.9314 31.3902 21.8217C31.2804 21.7119 31.1316 21.6503 30.9764 21.6503C30.8212 21.6503 30.6724 21.7119 30.5626 21.8217C30.4529 21.9314 30.3912 22.0802 30.3912 22.2354V34.2934C30.3912 34.4486 30.4529 34.5974 30.5626 34.7071C30.6724 34.8169 30.8212 34.8785 30.9764 34.8785C31.1316 34.8785 31.2804 34.8169 31.3902 34.7071C31.4999 34.5974 31.5615 34.4486 31.5615 34.2934Z" fill="black"/>
<path d="M36.094 34.2934V22.2354C36.094 22.0802 36.0324 21.9314 35.9226 21.8217C35.8129 21.7119 35.6641 21.6503 35.5089 21.6503C35.3537 21.6503 35.2048 21.7119 35.0951 21.8217C34.9854 21.9314 34.9237 22.0802 34.9237 22.2354V34.2934C34.9237 34.4486 34.9854 34.5974 35.0951 34.7071C35.2048 34.8169 35.3537 34.8785 35.5089 34.8785C35.6641 34.8785 35.8129 34.8169 35.9226 34.7071C36.0324 34.5974 36.094 34.4486 36.094 34.2934Z" fill="black"/>
<path d="M22.4562 34.2934V22.2354C22.4562 22.0802 22.3946 21.9314 22.2848 21.8217C22.1751 21.7119 22.0263 21.6503 21.8711 21.6503C21.7159 21.6503 21.567 21.7119 21.4573 21.8217C21.3476 21.9314 21.2859 22.0802 21.2859 22.2354V34.2934C21.2859 34.4486 21.3476 34.5974 21.4573 34.7071C21.567 34.8169 21.7159 34.8785 21.8711 34.8785C22.0263 34.8785 22.1751 34.8169 22.2848 34.7071C22.3946 34.5974 22.4562 34.4486 22.4562 34.2934Z" fill="black"/>
<path d="M17.9277 34.2934V22.2354C17.9277 22.0802 17.866 21.9314 17.7563 21.8217C17.6466 21.7119 17.4977 21.6503 17.3425 21.6503C17.1874 21.6503 17.0385 21.7119 16.9288 21.8217C16.8191 21.9314 16.7574 22.0802 16.7574 22.2354V34.2934C16.7574 34.4486 16.8191 34.5974 16.9288 34.7071C17.0385 34.8169 17.1874 34.8785 17.3425 34.8785C17.4977 34.8785 17.6466 34.8169 17.7563 34.7071C17.866 34.5974 17.9277 34.4486 17.9277 34.2934Z" fill="black"/>
</svg>
