<svg xmlns="http://www.w3.org/2000/svg" width="52" height="52" fill="none"><circle cx="26" cy="26" r="25" fill="#fff" stroke="#172343" stroke-width="2"/><path fill="#000" d="M13.586 21.21h25.692a.586.586 0 0 0 .312-1.081l-12.846-8.04a.585.585 0 0 0-.62 0l-12.85 8.04a.585.585 0 0 0 .312 1.08Zm12.846-7.935 10.81 6.764h-21.62l10.81-6.764ZM15.396 35.9a.585.585 0 0 0 .585.586h20.901a.585.585 0 1 0 0-1.17H15.981a.585.585 0 0 0-.585.585ZM39.278 38.534H13.586a.585.585 0 1 0 0 1.17h25.692a.585.585 0 1 0 0-1.17ZM27.03 34.293V22.235a.585.585 0 0 0-1.171 0v12.058a.585.585 0 1 0 1.17 0ZM31.561 34.293V22.235a.585.585 0 1 0-1.17 0v12.058a.585.585 0 0 0 1.17 0ZM36.094 34.293V22.235a.585.585 0 1 0-1.17 0v12.058a.585.585 0 0 0 1.17 0ZM22.456 34.293V22.235a.585.585 0 1 0-1.17 0v12.058a.585.585 0 0 0 1.17 0ZM17.928 34.293V22.235a.585.585 0 0 0-1.17 0v12.058a.585.585 0 0 0 1.17 0Z"/></svg>