<svg xmlns="http://www.w3.org/2000/svg" width="52" height="52" fill="none"><circle cx="26" cy="26" r="25" fill="#fff" stroke="#172343" stroke-width="2"/><path fill="#000" d="M30.95 28.42h-1.62v-2.627a8.048 8.048 0 0 0 2.71-6.163c0-.932-.148-1.857-.44-2.742V12.5a.5.5 0 0 0-.5-.5H19.87a.5.5 0 0 0-.5.5v4.481a8.719 8.719 0 0 0-.41 2.649 8.056 8.056 0 0 0 2.62 6.08v2.71h-1.53A9.06 9.06 0 0 0 11 37.47v1.78a.5.5 0 0 0 .5.5h28a.5.5 0 0 0 .5-.5v-1.78a9.06 9.06 0 0 0-9.05-9.05Zm-8.37-1.97.02.01c.035.021.073.035.109.055.222.123.451.23.687.323.119.047.239.085.36.124.149.047.3.087.45.122.15.035.3.07.453.093.117.017.235.021.353.031.163.014.323.043.488.043.165 0 .311-.027.466-.04.1-.008.191-.012.286-.024a5.715 5.715 0 0 0 .887-.196c.129-.039.256-.076.382-.124.226-.086.445-.186.658-.3.042-.022.086-.037.128-.06l.018-.009v2.422a1.911 1.911 0 0 1-1.91 1.91H24.49a1.912 1.912 0 0 1-1.91-1.91v-2.47ZM20.37 13H30.6v3.35H20.37V13Zm-.048 4.337c.017 0 .031.009.048.009h3.957a9.248 9.248 0 0 1-4.321 1.719 7.662 7.662 0 0 1 .316-1.728Zm-.338 2.755a10.52 10.52 0 0 0 5.866-2.693.585.585 0 0 0 .035-.053h4.745c.017 0 .031-.008.048-.009.236.742.358 1.515.362 2.293a7 7 0 0 1-2.518 5.545 4.853 4.853 0 0 1-6.128-.074 6.922 6.922 0 0 1-2.41-5.009ZM39 38.75H12v-1.28a8.06 8.06 0 0 1 8.05-8.05h1.573a2.914 2.914 0 0 0 2.867 2.41h1.93a2.914 2.914 0 0 0 2.867-2.41h1.663A8.06 8.06 0 0 1 39 37.47v1.28Z"/><path fill="#000" d="M35.156 31.816a.5.5 0 1 0-.6.8 6.027 6.027 0 0 1 2.4 4.133H13.5a.5.5 0 0 0 0 1h24a.5.5 0 0 0 .5-.517 7.016 7.016 0 0 0-2.844-5.416Z"/></svg>