<svg xmlns="http://www.w3.org/2000/svg" width="281" height="113" fill="none"><path fill="#F2F2F2" d="M.625.416h11.149L39.63 34.999V.416h1.54v52.67h-1.663L2.142 7.213v43.873H.602L.625.415ZM55.63.416h31.044v1.447H67.21v23.152h13.243v1.44H67.21v23.153h22.582v1.477H55.63V.415ZM92.11.416h11.934l12.088 41.31L127.281.416h8.099l12.32 41.31L160.15.416h1.378l-14.999 50.67h-8.177l-12.088-40.733-10.925 40.732h-8.177L92.11.415ZM.917 60.268h18.017c14.044 0 21.643 4.772 21.643 12.516 0 6.442-4.997 11.068-13.027 12.369v.292c9.332.87 15.19 5.642 15.19 12.446 0 7.882-7.814 13.024-22.79 13.024H.918V60.268Zm18.379 24.63c7.238 0 10.925-3.91 10.925-11.545s-3.85-11.546-11.287-11.546H12.49V84.96l6.806-.061Zm-.577 24.631c8.323 0 12.588-3.91 12.588-11.545 0-7.636-4.412-11.746-12.727-11.746h-6.083v23.23l6.222.061ZM52.519 60.268h17.37c13.528 0 21.635 5.21 21.635 13.855 0 5.388-4.342 9.329-10.64 11.214l17.085 25.539H84.503L68.941 87.577c-.21.057-.429.08-.647.07H64.1v23.229h-11.55l-.03-50.608Zm16.939 25.97c7.314 0 11.433-4.41 11.433-12.315 0-7.905-4.119-12.223-11.433-12.223h-5.351v24.522l5.35.016ZM105.784 60.268h11.549v50.647h-11.549V60.268ZM132.054 60.268h16.431c17.655 0 28.873 10.345 28.873 25.323 0 14.979-11.218 25.324-28.873 25.324h-16.431V60.268Zm16.939 49.2c10.495 0 16.569-7.89 16.569-23.861 0-15.972-6.074-23.946-16.569-23.946h-5.389v47.822l5.389-.015ZM185.465 86.022c0-16.425 10.356-26.84 25.185-26.84 11.726 0 19.249 6.874 21.281 16.711h-1.447c-1.809-8.028-7.453-13.816-16.169-13.816-10.132 0-17.008 9.406-17.008 23.437 0 14.186 6.93 23.515 15.399 23.515 7.022 0 11.865-6.219 11.865-14.97v-7.744h-11.888v-1.447h23.021v26.047h-11.087v-9.029c-2.31 6.158-7.884 10.129-16.277 10.129-13.605-.015-22.875-10.506-22.875-25.993ZM246.838 60.268h31.051v1.447h-19.471v23.153h13.243v1.447h-13.243v23.153H281v1.447h-34.162V60.268Z"/></svg>