<svg xmlns="http://www.w3.org/2000/svg" width="52" height="52" fill="none"><circle cx="26" cy="26" r="25" fill="#fff" stroke="#172343" stroke-width="2"/><mask id="a" width="44" height="14" x="4" y="20.146" fill="#000" maskUnits="userSpaceOnUse"><path fill="#fff" d="M4 20.146h44v14H4z"/><path fill-rule="evenodd" d="M46.524 21.147h-11.71v1.21h.244v.005h-.244v.083H17.073v-.083h-.204v-.005h.204v-1.21H5.415a.415.415 0 0 0 0 .829h.61V33.036H45.867V21.976h.658a.415.415 0 0 0 0-.83Zm-17.519 2.045v9.799h-.83v-9.8h.83Zm-5.253 0v9.799h-.83v-9.8h.83ZM9.145 29.455h-.7v1.574h-.83v-2.403h1.53v.83Zm0-4.36h-.7v1.574h-.83v-2.403h1.53v.83Zm3.541 4.36h-.7v1.574h-.83v-2.403h1.53v.83Zm0-4.36h-.7v1.574h-.83v-2.403h1.53v.83Zm3.542 4.36h-.7v1.574h-.83v-2.403h1.53v.83Zm0-4.36h-.7v1.574h-.83v-2.403h1.53v.83Zm5.183 4.324h-.699v1.574h-.83v-2.404h1.53v.83Zm0-4.323h-.699v1.573h-.83v-2.403h1.53v.83Zm5.267 4.323h-.699v1.574h-.83v-2.404h1.53v.83Zm0-4.323h-.699v1.573h-.83v-2.403h1.53v.83Zm5.415 4.323h-.699v1.574h-.83v-2.404h1.53v.83Zm0-4.323h-.699v1.573h-.83v-2.403h1.53v.83Zm5.104 4.36h-.7v1.573h-.829v-2.403h1.53v.83Zm0-4.36h-.7v1.573h-.829v-2.403h1.53v.83Zm3.542 4.36h-.7v1.573h-.83v-2.403h1.53v.83Zm0-4.36h-.7v1.573h-.83v-2.403h1.53v.83Zm3.542 4.36h-.7v1.573h-.83v-2.403h1.53v.83Zm0-4.36h-.7v1.573h-.83v-2.403h1.53v.83Z" clip-rule="evenodd"/></mask><path fill="#fff" fill-rule="evenodd" d="M46.524 21.147h-11.71v1.21h.244v.005h-.244v.083H17.073v-.083h-.204v-.005h.204v-1.21H5.415a.415.415 0 0 0 0 .829h.61V33.036H45.867V21.976h.658a.415.415 0 0 0 0-.83Zm-17.519 2.045v9.799h-.83v-9.8h.83Zm-5.253 0v9.799h-.83v-9.8h.83ZM9.145 29.455h-.7v1.574h-.83v-2.403h1.53v.83Zm0-4.36h-.7v1.574h-.83v-2.403h1.53v.83Zm3.541 4.36h-.7v1.574h-.83v-2.403h1.53v.83Zm0-4.36h-.7v1.574h-.83v-2.403h1.53v.83Zm3.542 4.36h-.7v1.574h-.83v-2.403h1.53v.83Zm0-4.36h-.7v1.574h-.83v-2.403h1.53v.83Zm5.183 4.324h-.699v1.574h-.83v-2.404h1.53v.83Zm0-4.323h-.699v1.573h-.83v-2.403h1.53v.83Zm5.267 4.323h-.699v1.574h-.83v-2.404h1.53v.83Zm0-4.323h-.699v1.573h-.83v-2.403h1.53v.83Zm5.415 4.323h-.699v1.574h-.83v-2.404h1.53v.83Zm0-4.323h-.699v1.573h-.83v-2.403h1.53v.83Zm5.104 4.36h-.7v1.573h-.829v-2.403h1.53v.83Zm0-4.36h-.7v1.573h-.829v-2.403h1.53v.83Zm3.542 4.36h-.7v1.573h-.83v-2.403h1.53v.83Zm0-4.36h-.7v1.573h-.83v-2.403h1.53v.83Zm3.542 4.36h-.7v1.573h-.83v-2.403h1.53v.83Zm0-4.36h-.7v1.573h-.83v-2.403h1.53v.83Z" clip-rule="evenodd"/><path fill="#000" d="M45.037 20.647h-.97v1h.97v-1Zm-5.477 0h-1.01v1h1.01v-1Zm1.838 0H40.39v1h1.01v-1Zm1.84 0h-1.01v1h1.01v-1Zm-5.517 0h-1.017v1h1.017v-1Zm-24.314 0H12.4v1h1.008v-1Zm-1.838 0h-1.01v1h1.01v-1Zm-1.839 0H8.712v1H9.73v-1Zm5.516 0h-1.01v1h1.01v-1Zm-7.363 0H6.856v1h1.027v-1ZM34.258 32.49h-.83v1h.83v-1Zm11.608-11.344v1-1Zm-9.992 0v-1 1Zm-1.06 0v-1h-1v1h1Zm0 1.21h-1v1h1v-1Zm.244 0h1v-1h-1v1Zm0 .005v1h1v-1h-1Zm-.244 0v-1h-1v1h1Zm0 .083v1h1v-1h-1Zm-17.741 0h-1v1h1v-1Zm0-.083h1v-1h-1v1Zm-.204 0h-1v1h1v-1Zm0-.005v-1h-1v1h1Zm.204 0v1h1v-1h-1Zm0-1.21h1v-1h-1v1Zm-.997 0v-1 1Zm-10.05 0v1-1Zm0 .829h1v-1h-1v1Zm0 11.06h-1v1h1v-1Zm39.84 0v1h1v-1h-1Zm0-11.06v-1h-1v1h1Zm1.073-.415-1-.002v.002h1Zm-17.934 1.63h1v-1h-1v1Zm0 9.8v1h1v-1h-1Zm-.83 0h-1v1h1v-1Zm0-9.8v-1h-1v1h1Zm-4.424 0h1v-1h-1v1Zm0 9.8v1h1v-1h-1Zm-.83 0h-1v1h1v-1Zm0-9.8v-1h-1v1h1ZM9.146 29.456v1h1v-1h-1Zm-.7 0v-1h-1v1h1Zm0 1.574v1h1v-1h-1Zm-.83 0h-1v1h1v-1Zm0-2.403v-1h-1v1h1Zm1.53 0h1v-1h-1v1Zm0-3.53v1h1v-1h-1Zm-.7 0v-1h-1v1h1Zm0 1.573v1h1v-1h-1Zm-.83 0h-1v1h1v-1Zm0-2.403v-1h-1v1h1Zm1.53 0h1v-1h-1v1Zm3.541 5.19v1h1v-1h-1Zm-.7 0v-1h-1v1h1Zm0 1.573v1h1v-1h-1Zm-.83 0h-1v1h1v-1Zm0-2.403v-1h-1v1h1Zm1.53 0h1v-1h-1v1Zm0-3.53v1h1v-1h-1Zm-.7 0v-1h-1v1h1Zm0 1.573v1h1v-1h-1Zm-.83 0h-1v1h1v-1Zm0-2.403v-1h-1v1h1Zm1.53 0h1v-1h-1v1Zm3.542 5.19v1h1v-1h-1Zm-.7 0v-1h-1v1h1Zm0 1.573v1h1v-1h-1Zm-.83 0h-1v1h1v-1Zm0-2.403v-1h-1v1h1Zm1.53 0h1v-1h-1v1Zm0-3.53v1h1v-1h-1Zm-.7 0v-1h-1v1h1Zm0 1.573v1h1v-1h-1Zm-.83 0h-1v1h1v-1Zm0-2.403v-1h-1v1h1Zm1.53 0h1v-1h-1v1Zm5.183 5.153v1h1v-1h-1Zm-.699 0v-1h-1v1h1Zm0 1.574v1h1v-1h-1Zm-.83 0h-1v1h1v-1Zm0-2.404v-1h-1v1h1Zm1.53 0h1v-1h-1v1Zm0-3.493v1h1v-1h-1Zm-.7 0v-1h-1v1h1Zm0 1.573v1h1v-1h-1Zm-.83 0h-1v1h1v-1Zm0-2.403v-1h-1v1h1Zm1.53 0h1v-1h-1v1Zm5.266 5.153v1h1v-1h-1Zm-.699 0v-1h-1v1h1Zm0 1.574v1h1v-1h-1Zm-.83 0h-1v1h1v-1Zm0-2.404v-1h-1v1h1Zm1.53 0h1v-1h-1v1Zm0-3.493v1h1v-1h-1Zm-.7 0v-1h-1v1h1Zm0 1.573v1h1v-1h-1Zm-.83 0h-1v1h1v-1Zm0-2.403v-1h-1v1h1Zm1.53 0h1v-1h-1v1Zm5.415 5.153v1h1v-1h-1Zm-.7 0v-1h-1v1h1Zm0 1.574v1h1v-1h-1Zm-.83 0h-1v1h1v-1Zm0-2.404v-1h-1v1h1Zm1.53 0h1v-1h-1v1Zm0-3.493v1h1v-1h-1Zm-.7 0v-1h-1v1h1Zm0 1.573v1h1v-1h-1Zm-.83 0h-1v1h1v-1Zm0-2.403v-1h-1v1h1Zm1.53 0h1v-1h-1v1Zm5.103 5.19v1h1v-1h-1Zm-.7 0v-1h-1v1h1Zm0 1.573v1h1v-1h-1Zm-.829 0h-1v1h1v-1Zm0-2.403v-1h-1v1h1Zm1.53 0h1v-1h-1v1Zm0-3.53v1h1v-1h-1Zm-.7 0v-1h-1v1h1Zm0 1.573v1h1v-1h-1Zm-.83 0h-1v1h1v-1Zm0-2.403v-1h-1v1h1Zm1.53 0h1v-1h-1v1Zm3.54 5.19v1h1v-1h-1Zm-.699 0v-1h-1v1h1Zm0 1.573v1h1v-1h-1Zm-.83 0h-1v1h1v-1Zm0-2.403v-1h-1v1h1Zm1.53 0h1v-1h-1v1Zm0-3.53v1h1v-1h-1Zm-.7 0v-1h-1v1h1Zm0 1.573v1h1v-1h-1Zm-.83 0h-1v1h1v-1Zm0-2.403v-1h-1v1h1Zm1.53 0h1v-1h-1v1Zm3.542 5.19v1h1v-1h-1Zm-.7 0v-1h-1v1h1Zm0 1.573v1h1v-1h-1Zm-.83 0h-1v1h1v-1Zm0-2.403v-1h-1v1h1Zm1.53 0h1v-1h-1v1Zm0-3.53v1h1v-1h-1Zm-.7 0v-1h-1v1h1Zm0 1.573v1h1v-1h-1Zm-.83 0h-1v1h1v-1Zm0-2.403v-1h-1v1h1Zm1.53 0h1v-1h-1v1Zm2.243-4.12h-.658v2h.658v-2Zm-10.65 0h-1.06v2h1.06v-2Zm-2.06 1v1.21h2v-1.21h-2Zm1 2.21h.244v-2h-.244v2Zm-.756-1v.006h2v-.005h-2Zm1-.994h-.244v2h.244v-2Zm-1.244 1v.083h2v-.083h-2Zm1-.917H32.63v2h2.185v-2Zm-2.185 0h-2.825v2h2.825v-2Zm-2.825 0h-2.428v2h2.428v-2Zm-2.428 0H24.55v2h2.825v-2Zm-2.825 0h-2.429v2h2.429v-2Zm-2.429 0h-2.825v2h2.825v-2Zm-2.825 0h-2.224v2h2.224v-2Zm-1.224 1v-.083h-2v.083h2Zm-1-1.083h-.204v2h.204v-2Zm.796 1v-.005h-2v.005h2Zm-1 .995h.204v-2h-.204v2Zm1.204-1v-1.21h-2v1.21h2Zm-1-2.21h-.997v2h.997v-2Zm-11.047 0h-.611v2h.61v-2Zm-.611 0C4.633 20.147 4 20.78 4 21.56h2a.585.585 0 0 1-.585.586v-2ZM4 21.56c0 .782.635 1.415 1.415 1.415v-2c.323 0 .585.261.585.585H4Zm1.415 1.415h.61v-2h-.61v2Zm-.39-1v1.216h2v-1.216h-2Zm0 1.216v9.844h2v-9.844h-2Zm1 10.844H16.87v-2H6.026v2Zm10.844 0h2.428v-2H16.87v2Zm2.428 0h2.825v-2h-2.825v2Zm2.825 0h2.429v-2h-2.429v2Zm2.429 0h2.825v-2H24.55v2Zm2.825 0h2.428v-2h-2.428v2Zm2.428 0h2.825v-2h-2.825v2Zm2.825 0h2.429v-2h-2.429v2Zm2.429 0h10.808v-2H35.058v2Zm11.808-1v-9.844h-2v9.844h2Zm0-9.844v-1.216h-2v1.216h2Zm-1-.216h.658v-2h-.658v2Zm.658 0c.78 0 1.415-.633 1.415-1.415h-2c0-.324.262-.585.585-.585v2Zm1.415-1.413a1.415 1.415 0 0 0-1.415-1.416v2a.585.585 0 0 1-.585-.588l2 .004Zm-19.934 1.629v9.799h2v-9.8h-2Zm1 8.799h-.83v2h.83v-2Zm.17 1v-9.8h-2v9.8h2Zm-1-8.8h.83v-2h-.83v2Zm-5.424-1v9.8h2v-9.8h-2Zm1 8.8h-.83v2h.83v-2Zm.17 1v-9.8h-2v9.8h2Zm-1-8.8h.83v-2h-.83v2ZM9.146 28.456h-.7v2h.7v-2Zm-1.7 1v1.574h2v-1.574h-2Zm1 .574h-.83v2h.83v-2Zm.17 1v-2.403h-2v2.403h2Zm-1-1.403h1.53v-2h-1.53v2Zm.53-1v.83h2v-.83h-2Zm1-4.53h-.7v2h.7v-2Zm-1.7 1v1.573h2v-1.573h-2Zm1 .573h-.83v2h.83v-2Zm.17 1v-2.403h-2v2.403h2Zm-1-1.403h1.53v-2h-1.53v2Zm.53-1v.83h2v-.83h-2Zm4.541 4.19h-.7v2h.7v-2Zm-1.7 1v1.573h2v-1.574h-2Zm1 .573h-.83v2h.83v-2Zm.17 1v-2.403h-2v2.403h2Zm-1-1.403h1.53v-2h-1.53v2Zm.53-1v.83h2v-.83h-2Zm1-4.53h-.7v2h.7v-2Zm-1.7 1v1.573h2v-1.573h-2Zm1 .573h-.83v2h.83v-2Zm.17 1v-2.403h-2v2.403h2Zm-1-1.403h1.53v-2h-1.53v2Zm.53-1v.83h2v-.83h-2Zm4.542 4.19h-.7v2h.7v-2Zm-1.7 1v1.573h2v-1.574h-2Zm1 .573h-.83v2h.83v-2Zm.17 1v-2.403h-2v2.403h2Zm-1-1.403h1.53v-2h-1.53v2Zm.53-1v.83h2v-.83h-2Zm1-4.53h-.7v2h.7v-2Zm-1.7 1v1.573h2v-1.573h-2Zm1 .573h-.83v2h.83v-2Zm.17 1v-2.403h-2v2.403h2Zm-1-1.403h1.53v-2h-1.53v2Zm.53-1v.83h2v-.83h-2Zm6.183 4.153h-.699v2h.7v-2Zm-1.699 1v1.574h2v-1.574h-2Zm1 .574h-.83v2h.83v-2Zm.17 1v-2.404h-2v2.404h2Zm-1-1.404h1.53v-2h-1.53v2Zm.53-1v.83h2v-.83h-2Zm1-4.493h-.7v2h.7v-2Zm-1.7 1v1.573h2v-1.573h-2Zm1 .573h-.83v2h.83v-2Zm.17 1v-2.403h-2v2.403h2Zm-1-1.403h1.53v-2h-1.53v2Zm.53-1v.83h2v-.83h-2Zm6.266 4.153h-.699v2h.7v-2Zm-1.699 1v1.574h2v-1.574h-2Zm1 .574h-.83v2h.83v-2Zm.17 1v-2.404h-2v2.404h2Zm-1-1.404h1.53v-2h-1.53v2Zm.53-1v.83h2v-.83h-2Zm1-4.493h-.7v2h.7v-2Zm-1.7 1v1.573h2v-1.573h-2Zm1 .573h-.83v2h.83v-2Zm.17 1v-2.403h-2v2.403h2Zm-1-1.403h1.53v-2h-1.53v2Zm.53-1v.83h2v-.83h-2Zm6.415 4.153h-.7v2h.7v-2Zm-1.7 1v1.574h2v-1.574h-2Zm1 .574h-.83v2h.83v-2Zm.17 1v-2.404h-2v2.404h2Zm-1-1.404h1.53v-2h-1.53v2Zm.53-1v.83h2v-.83h-2Zm1-4.493h-.7v2h.7v-2Zm-1.7 1v1.573h2v-1.573h-2Zm1 .573h-.83v2h.83v-2Zm.17 1v-2.403h-2v2.403h2Zm-1-1.403h1.53v-2h-1.53v2Zm.53-1v.83h2v-.83h-2Zm6.103 4.19h-.7v2h.7v-2Zm-1.7 1v1.573h2v-1.574h-2Zm1 .573h-.829v2h.83v-2Zm.171 1v-2.403h-2v2.403h2Zm-1-1.403h1.53v-2h-1.53v2Zm.53-1v.83h2v-.83h-2Zm1-4.53h-.7v2h.7v-2Zm-1.7 1v1.573h2v-1.573h-2Zm1 .573h-.83v2h.83v-2Zm.17 1v-2.403h-2v2.403h2Zm-1-1.403h1.53v-2h-1.53v2Zm.53-1v.83h2v-.83h-2Zm4.54 4.19h-.699v2h.7v-2Zm-1.699 1v1.573h2v-1.574h-2Zm1 .573h-.83v2h.83v-2Zm.17 1v-2.403h-2v2.403h2Zm-1-1.403h1.53v-2h-1.53v2Zm.53-1v.83h2v-.83h-2Zm1-4.53h-.7v2h.7v-2Zm-1.7 1v1.573h2v-1.573h-2Zm1 .573h-.83v2h.83v-2Zm.17 1v-2.403h-2v2.403h2Zm-1-1.403h1.53v-2h-1.53v2Zm.53-1v.83h2v-.83h-2Zm4.542 4.19h-.7v2h.7v-2Zm-1.7 1v1.573h2v-1.574h-2Zm1 .573h-.83v2h.83v-2Zm.17 1v-2.403h-2v2.403h2Zm-1-1.403h1.53v-2h-1.53v2Zm.53-1v.83h2v-.83h-2Zm1-4.53h-.7v2h.7v-2Zm-1.7 1v1.573h2v-1.573h-2Zm1 .573h-.83v2h.83v-2Zm.17 1v-2.403h-2v2.403h2Zm-1-1.403h1.53v-2h-1.53v2Zm.53-1v.83h2v-.83h-2Zm-27.205-4.12H6.026v2h10.05v-2Zm29.79 0h-9.992v2h9.992v-2Z" mask="url(#a)"/><path fill="#fff" stroke="#000" d="M4.5 21.655v.5h43v-2.326h-43V21.655Z"/><path fill="#fff" stroke="#000" d="M24.453 19.002h3.095v3.095h-3.095z"/></svg>