<svg width="52" height="52" viewBox="0 0 52 52" fill="none" xmlns="http://www.w3.org/2000/svg">
<circle cx="26" cy="26" r="25" fill="white" stroke="#172343" stroke-width="2"/>
<mask id="path-2-outside-1_1_20" maskUnits="userSpaceOnUse" x="4" y="20.1462" width="44" height="14" fill="black">
<rect fill="white" x="4" y="20.1462" width="44" height="14"/>
<path fill-rule="evenodd" clip-rule="evenodd" d="M46.5239 21.1466H45.866L35.8735 21.1462H34.8143V22.3566H35.0579V22.362H34.8143V22.4451H32.6294H29.8043H27.3758H24.5508H22.1223H19.2972H17.073V22.362H16.8692V22.3566H17.073V21.1462H16.0756L6.02568 21.1466H5.41469C5.18568 21.1466 5 21.3323 5 21.5613C5 21.7903 5.18613 21.976 5.41469 21.976H6.02568V23.1918V33.0357H16.8692H19.2972H22.1223H24.5508H27.3758H29.8043H32.6294H35.0579H45.866V23.1918V21.976H46.5239C46.7529 21.976 46.939 21.7899 46.939 21.5613C46.9394 21.3323 46.7529 21.1466 46.5239 21.1466ZM29.005 23.1918V32.991H28.1747V23.1918H29.005ZM23.7515 23.1918V32.991H22.9216V23.1918H23.7515ZM9.14474 29.4551H8.44533V31.029H7.61549V28.6257H9.14474V29.4551ZM9.14474 25.0959H8.44533V26.6694H7.61549V24.2657H9.14474V25.0959ZM12.686 29.4551H11.9866V31.029H11.1568V28.6257H12.686V29.4551ZM12.686 25.0959H11.9866V26.6694H11.1568V24.2657H12.686V25.0959ZM16.2281 29.4551H15.5287V31.029H14.6989V28.6257H16.2281V29.4551ZM16.2281 25.0959H15.5287V26.6694H14.6989V24.2657H16.2281V25.0959ZM21.4114 29.4193H20.7124V30.9927H19.8826V28.5894H21.4114V29.4193ZM21.4114 25.0959H20.7124V26.6694H19.8826V24.2657H21.4114V25.0959ZM26.6782 29.4193H25.9792V30.9927H25.1494V28.5894H26.6782V29.4193ZM26.6782 25.0959H25.9792V26.6694H25.1494V24.2657H26.6782V25.0959ZM32.0935 29.4193H31.3941V30.9927H30.5643V28.5894H32.0935V29.4193ZM32.0935 25.0959H31.3941V26.6694H30.5643V24.2657H32.0935V25.0959ZM37.1972 29.4551H36.4978V31.029H35.668V28.6257H37.1972V29.4551ZM37.1972 25.0959H36.4978V26.6694H35.668V24.2657H37.1972V25.0959ZM40.7389 29.4551H40.0391V31.029H39.2097V28.6257H40.7389V29.4551ZM40.7389 25.0959H40.0391V26.6694H39.2097V24.2657H40.7389V25.0959ZM44.2806 29.4551H43.5812V31.029H42.7514V28.6257H44.2806V29.4551ZM44.2806 25.0959H43.5812V26.6694H42.7514V24.2657H44.2806V25.0959Z"/>
</mask>
<path fill-rule="evenodd" clip-rule="evenodd" d="M46.5239 21.1466H45.866L35.8735 21.1462H34.8143V22.3566H35.0579V22.362H34.8143V22.4451H32.6294H29.8043H27.3758H24.5508H22.1223H19.2972H17.073V22.362H16.8692V22.3566H17.073V21.1462H16.0756L6.02568 21.1466H5.41469C5.18568 21.1466 5 21.3323 5 21.5613C5 21.7903 5.18613 21.976 5.41469 21.976H6.02568V23.1918V33.0357H16.8692H19.2972H22.1223H24.5508H27.3758H29.8043H32.6294H35.0579H45.866V23.1918V21.976H46.5239C46.7529 21.976 46.939 21.7899 46.939 21.5613C46.9394 21.3323 46.7529 21.1466 46.5239 21.1466ZM29.005 23.1918V32.991H28.1747V23.1918H29.005ZM23.7515 23.1918V32.991H22.9216V23.1918H23.7515ZM9.14474 29.4551H8.44533V31.029H7.61549V28.6257H9.14474V29.4551ZM9.14474 25.0959H8.44533V26.6694H7.61549V24.2657H9.14474V25.0959ZM12.686 29.4551H11.9866V31.029H11.1568V28.6257H12.686V29.4551ZM12.686 25.0959H11.9866V26.6694H11.1568V24.2657H12.686V25.0959ZM16.2281 29.4551H15.5287V31.029H14.6989V28.6257H16.2281V29.4551ZM16.2281 25.0959H15.5287V26.6694H14.6989V24.2657H16.2281V25.0959ZM21.4114 29.4193H20.7124V30.9927H19.8826V28.5894H21.4114V29.4193ZM21.4114 25.0959H20.7124V26.6694H19.8826V24.2657H21.4114V25.0959ZM26.6782 29.4193H25.9792V30.9927H25.1494V28.5894H26.6782V29.4193ZM26.6782 25.0959H25.9792V26.6694H25.1494V24.2657H26.6782V25.0959ZM32.0935 29.4193H31.3941V30.9927H30.5643V28.5894H32.0935V29.4193ZM32.0935 25.0959H31.3941V26.6694H30.5643V24.2657H32.0935V25.0959ZM37.1972 29.4551H36.4978V31.029H35.668V28.6257H37.1972V29.4551ZM37.1972 25.0959H36.4978V26.6694H35.668V24.2657H37.1972V25.0959ZM40.7389 29.4551H40.0391V31.029H39.2097V28.6257H40.7389V29.4551ZM40.7389 25.0959H40.0391V26.6694H39.2097V24.2657H40.7389V25.0959ZM44.2806 29.4551H43.5812V31.029H42.7514V28.6257H44.2806V29.4551ZM44.2806 25.0959H43.5812V26.6694H42.7514V24.2657H44.2806V25.0959Z" fill="white"/>
<path d="M45.0366 20.6466H44.0671V21.6466H45.0366V20.6466ZM39.5598 20.6466H38.5505V21.6466H39.5598V20.6466ZM41.3985 20.6466H40.3892V21.6466H41.3985V20.6466ZM43.2372 20.6466H42.2279V21.6466H43.2372V20.6466ZM37.7207 20.6466H36.7038V21.6466H37.7207V20.6466ZM13.4071 20.6466H12.3986V21.6466H13.4071V20.6466ZM11.5688 20.6466H10.5599V21.6466H11.5688V20.6466ZM9.73008 20.6466H8.71236V21.6466H9.73008V20.6466ZM15.2462 20.6466H14.2369V21.6466H15.2462V20.6466ZM7.88253 20.6466H6.85552V21.6466H7.88253V20.6466ZM34.2581 32.491H33.4287V33.491H34.2581V32.491ZM45.866 21.1466L45.866 22.1466H45.866V21.1466ZM35.8735 21.1462L35.8736 20.1462H35.8735V21.1462ZM34.8143 21.1462V20.1462H33.8143V21.1462H34.8143ZM34.8143 22.3566H33.8143V23.3566H34.8143V22.3566ZM35.0579 22.3566H36.0579V21.3566H35.0579V22.3566ZM35.0579 22.362V23.362H36.0579V22.362H35.0579ZM34.8143 22.362V21.362H33.8143V22.362H34.8143ZM34.8143 22.4451V23.4451H35.8143V22.4451H34.8143ZM17.073 22.4451H16.073V23.4451H17.073V22.4451ZM17.073 22.362H18.073V21.362H17.073V22.362ZM16.8692 22.362H15.8692V23.362H16.8692V22.362ZM16.8692 22.3566V21.3566H15.8692V22.3566H16.8692ZM17.073 22.3566V23.3566H18.073V22.3566H17.073ZM17.073 21.1462H18.073V20.1462H17.073V21.1462ZM16.0756 21.1462L16.0756 20.1462L16.0756 20.1462L16.0756 21.1462ZM6.02568 21.1466L6.02568 22.1466L6.02573 22.1466L6.02568 21.1466ZM6.02568 21.976H7.02568V20.976H6.02568V21.976ZM6.02568 33.0357H5.02568V34.0357H6.02568V33.0357ZM45.866 33.0357V34.0357H46.866V33.0357H45.866ZM45.866 21.976V20.976H44.866V21.976H45.866ZM46.939 21.5613L45.939 21.5594V21.5613H46.939ZM29.005 23.1918H30.005V22.1918H29.005V23.1918ZM29.005 32.991V33.991H30.005V32.991H29.005ZM28.1747 32.991H27.1747V33.991H28.1747V32.991ZM28.1747 23.1918V22.1918H27.1747V23.1918H28.1747ZM23.7515 23.1918H24.7515V22.1918H23.7515V23.1918ZM23.7515 32.991V33.991H24.7515V32.991H23.7515ZM22.9216 32.991H21.9216V33.991H22.9216V32.991ZM22.9216 23.1918V22.1918H21.9216V23.1918H22.9216ZM9.14474 29.4551V30.4551H10.1447V29.4551H9.14474ZM8.44533 29.4551V28.4551H7.44533V29.4551H8.44533ZM8.44533 31.029V32.029H9.44533V31.029H8.44533ZM7.61549 31.029H6.61549V32.029H7.61549V31.029ZM7.61549 28.6257V27.6257H6.61549V28.6257H7.61549ZM9.14474 28.6257H10.1447V27.6257H9.14474V28.6257ZM9.14474 25.0959V26.0959H10.1447V25.0959H9.14474ZM8.44533 25.0959V24.0959H7.44533V25.0959H8.44533ZM8.44533 26.6694V27.6694H9.44533V26.6694H8.44533ZM7.61549 26.6694H6.61549V27.6694H7.61549V26.6694ZM7.61549 24.2657V23.2657H6.61549V24.2657H7.61549ZM9.14474 24.2657H10.1447V23.2657H9.14474V24.2657ZM12.686 29.4551V30.4551H13.686V29.4551H12.686ZM11.9866 29.4551V28.4551H10.9866V29.4551H11.9866ZM11.9866 31.029V32.029H12.9866V31.029H11.9866ZM11.1568 31.029H10.1568V32.029H11.1568V31.029ZM11.1568 28.6257V27.6257H10.1568V28.6257H11.1568ZM12.686 28.6257H13.686V27.6257H12.686V28.6257ZM12.686 25.0959V26.0959H13.686V25.0959H12.686ZM11.9866 25.0959V24.0959H10.9866V25.0959H11.9866ZM11.9866 26.6694V27.6694H12.9866V26.6694H11.9866ZM11.1568 26.6694H10.1568V27.6694H11.1568V26.6694ZM11.1568 24.2657V23.2657H10.1568V24.2657H11.1568ZM12.686 24.2657H13.686V23.2657H12.686V24.2657ZM16.2281 29.4551V30.4551H17.2281V29.4551H16.2281ZM15.5287 29.4551V28.4551H14.5287V29.4551H15.5287ZM15.5287 31.029V32.029H16.5287V31.029H15.5287ZM14.6989 31.029H13.6989V32.029H14.6989V31.029ZM14.6989 28.6257V27.6257H13.6989V28.6257H14.6989ZM16.2281 28.6257H17.2281V27.6257H16.2281V28.6257ZM16.2281 25.0959V26.0959H17.2281V25.0959H16.2281ZM15.5287 25.0959V24.0959H14.5287V25.0959H15.5287ZM15.5287 26.6694V27.6694H16.5287V26.6694H15.5287ZM14.6989 26.6694H13.6989V27.6694H14.6989V26.6694ZM14.6989 24.2657V23.2657H13.6989V24.2657H14.6989ZM16.2281 24.2657H17.2281V23.2657H16.2281V24.2657ZM21.4114 29.4193V30.4193H22.4114V29.4193H21.4114ZM20.7124 29.4193V28.4193H19.7124V29.4193H20.7124ZM20.7124 30.9927V31.9927H21.7124V30.9927H20.7124ZM19.8826 30.9927H18.8826V31.9927H19.8826V30.9927ZM19.8826 28.5894V27.5894H18.8826V28.5894H19.8826ZM21.4114 28.5894H22.4114V27.5894H21.4114V28.5894ZM21.4114 25.0959V26.0959H22.4114V25.0959H21.4114ZM20.7124 25.0959V24.0959H19.7124V25.0959H20.7124ZM20.7124 26.6694V27.6694H21.7124V26.6694H20.7124ZM19.8826 26.6694H18.8826V27.6694H19.8826V26.6694ZM19.8826 24.2657V23.2657H18.8826V24.2657H19.8826ZM21.4114 24.2657H22.4114V23.2657H21.4114V24.2657ZM26.6782 29.4193V30.4193H27.6782V29.4193H26.6782ZM25.9792 29.4193V28.4193H24.9792V29.4193H25.9792ZM25.9792 30.9927V31.9927H26.9792V30.9927H25.9792ZM25.1494 30.9927H24.1494V31.9927H25.1494V30.9927ZM25.1494 28.5894V27.5894H24.1494V28.5894H25.1494ZM26.6782 28.5894H27.6782V27.5894H26.6782V28.5894ZM26.6782 25.0959V26.0959H27.6782V25.0959H26.6782ZM25.9792 25.0959V24.0959H24.9792V25.0959H25.9792ZM25.9792 26.6694V27.6694H26.9792V26.6694H25.9792ZM25.1494 26.6694H24.1494V27.6694H25.1494V26.6694ZM25.1494 24.2657V23.2657H24.1494V24.2657H25.1494ZM26.6782 24.2657H27.6782V23.2657H26.6782V24.2657ZM32.0935 29.4193V30.4193H33.0935V29.4193H32.0935ZM31.3941 29.4193V28.4193H30.3941V29.4193H31.3941ZM31.3941 30.9927V31.9927H32.3941V30.9927H31.3941ZM30.5643 30.9927H29.5643V31.9927H30.5643V30.9927ZM30.5643 28.5894V27.5894H29.5643V28.5894H30.5643ZM32.0935 28.5894H33.0935V27.5894H32.0935V28.5894ZM32.0935 25.0959V26.0959H33.0935V25.0959H32.0935ZM31.3941 25.0959V24.0959H30.3941V25.0959H31.3941ZM31.3941 26.6694V27.6694H32.3941V26.6694H31.3941ZM30.5643 26.6694H29.5643V27.6694H30.5643V26.6694ZM30.5643 24.2657V23.2657H29.5643V24.2657H30.5643ZM32.0935 24.2657H33.0935V23.2657H32.0935V24.2657ZM37.1972 29.4551V30.4551H38.1972V29.4551H37.1972ZM36.4978 29.4551V28.4551H35.4978V29.4551H36.4978ZM36.4978 31.029V32.029H37.4978V31.029H36.4978ZM35.668 31.029H34.668V32.029H35.668V31.029ZM35.668 28.6257V27.6257H34.668V28.6257H35.668ZM37.1972 28.6257H38.1972V27.6257H37.1972V28.6257ZM37.1972 25.0959V26.0959H38.1972V25.0959H37.1972ZM36.4978 25.0959V24.0959H35.4978V25.0959H36.4978ZM36.4978 26.6694V27.6694H37.4978V26.6694H36.4978ZM35.668 26.6694H34.668V27.6694H35.668V26.6694ZM35.668 24.2657V23.2657H34.668V24.2657H35.668ZM37.1972 24.2657H38.1972V23.2657H37.1972V24.2657ZM40.7389 29.4551V30.4551H41.7389V29.4551H40.7389ZM40.0391 29.4551V28.4551H39.0391V29.4551H40.0391ZM40.0391 31.029V32.029H41.0391V31.029H40.0391ZM39.2097 31.029H38.2097V32.029H39.2097V31.029ZM39.2097 28.6257V27.6257H38.2097V28.6257H39.2097ZM40.7389 28.6257H41.7389V27.6257H40.7389V28.6257ZM40.7389 25.0959V26.0959H41.7389V25.0959H40.7389ZM40.0391 25.0959V24.0959H39.0391V25.0959H40.0391ZM40.0391 26.6694V27.6694H41.0391V26.6694H40.0391ZM39.2097 26.6694H38.2097V27.6694H39.2097V26.6694ZM39.2097 24.2657V23.2657H38.2097V24.2657H39.2097ZM40.7389 24.2657H41.7389V23.2657H40.7389V24.2657ZM44.2806 29.4551V30.4551H45.2806V29.4551H44.2806ZM43.5812 29.4551V28.4551H42.5812V29.4551H43.5812ZM43.5812 31.029V32.029H44.5812V31.029H43.5812ZM42.7514 31.029H41.7514V32.029H42.7514V31.029ZM42.7514 28.6257V27.6257H41.7514V28.6257H42.7514ZM44.2806 28.6257H45.2806V27.6257H44.2806V28.6257ZM44.2806 25.0959V26.0959H45.2806V25.0959H44.2806ZM43.5812 25.0959V24.0959H42.5812V25.0959H43.5812ZM43.5812 26.6694V27.6694H44.5812V26.6694H43.5812ZM42.7514 26.6694H41.7514V27.6694H42.7514V26.6694ZM42.7514 24.2657V23.2657H41.7514V24.2657H42.7514ZM44.2806 24.2657H45.2806V23.2657H44.2806V24.2657ZM46.5239 20.1466H45.866V22.1466H46.5239V20.1466ZM35.8735 20.1462H34.8143V22.1462H35.8735V20.1462ZM33.8143 21.1462V22.3566H35.8143V21.1462H33.8143ZM34.8143 23.3566H35.0579V21.3566H34.8143V23.3566ZM34.0579 22.3566V22.362H36.0579V22.3566H34.0579ZM35.0579 21.362H34.8143V23.362H35.0579V21.362ZM33.8143 22.362V22.4451H35.8143V22.362H33.8143ZM34.8143 21.4451H32.6294V23.4451H34.8143V21.4451ZM32.6294 21.4451H29.8043V23.4451H32.6294V21.4451ZM29.8043 21.4451H27.3758V23.4451H29.8043V21.4451ZM27.3758 21.4451H24.5508V23.4451H27.3758V21.4451ZM24.5508 21.4451H22.1223V23.4451H24.5508V21.4451ZM22.1223 21.4451H19.2972V23.4451H22.1223V21.4451ZM19.2972 21.4451H17.073V23.4451H19.2972V21.4451ZM18.073 22.4451V22.362H16.073V22.4451H18.073ZM17.073 21.362H16.8692V23.362H17.073V21.362ZM17.8692 22.362V22.3566H15.8692V22.362H17.8692ZM16.8692 23.3566H17.073V21.3566H16.8692V23.3566ZM18.073 22.3566V21.1462H16.073V22.3566H18.073ZM17.073 20.1462H16.0756V22.1462H17.073V20.1462ZM6.02568 20.1466H5.41469V22.1466H6.02568V20.1466ZM5.41469 20.1466C4.6334 20.1466 4 20.78 4 21.5613H6C6 21.8846 5.73797 22.1466 5.41469 22.1466V20.1466ZM4 21.5613C4 22.3433 4.63454 22.976 5.41469 22.976V20.976C5.73772 20.976 6 21.2373 6 21.5613H4ZM5.41469 22.976H6.02568V20.976H5.41469V22.976ZM5.02568 21.976V23.1918H7.02568V21.976H5.02568ZM5.02568 23.1918V33.0357H7.02568V23.1918H5.02568ZM6.02568 34.0357H16.8692V32.0357H6.02568V34.0357ZM16.8692 34.0357H19.2972V32.0357H16.8692V34.0357ZM19.2972 34.0357H22.1223V32.0357H19.2972V34.0357ZM22.1223 34.0357H24.5508V32.0357H22.1223V34.0357ZM24.5508 34.0357H27.3758V32.0357H24.5508V34.0357ZM27.3758 34.0357H29.8043V32.0357H27.3758V34.0357ZM29.8043 34.0357H32.6294V32.0357H29.8043V34.0357ZM32.6294 34.0357H35.0579V32.0357H32.6294V34.0357ZM35.0579 34.0357H45.866V32.0357H35.0579V34.0357ZM46.866 33.0357V23.1918H44.866V33.0357H46.866ZM46.866 23.1918V21.976H44.866V23.1918H46.866ZM45.866 22.976H46.5239V20.976H45.866V22.976ZM46.5239 22.976C47.3045 22.976 47.939 22.3429 47.939 21.5613H45.939C45.939 21.2369 46.2013 20.976 46.5239 20.976V22.976ZM47.939 21.5632C47.9405 20.7773 47.302 20.1466 46.5239 20.1466V22.1466C46.2037 22.1466 45.9384 21.8873 45.939 21.5594L47.939 21.5632ZM28.005 23.1918V32.991H30.005V23.1918H28.005ZM29.005 31.991H28.1747V33.991H29.005V31.991ZM29.1747 32.991V23.1918H27.1747V32.991H29.1747ZM28.1747 24.1918H29.005V22.1918H28.1747V24.1918ZM22.7515 23.1918V32.991H24.7515V23.1918H22.7515ZM23.7515 31.991H22.9216V33.991H23.7515V31.991ZM23.9216 32.991V23.1918H21.9216V32.991H23.9216ZM22.9216 24.1918H23.7515V22.1918H22.9216V24.1918ZM9.14474 28.4551H8.44533V30.4551H9.14474V28.4551ZM7.44533 29.4551V31.029H9.44533V29.4551H7.44533ZM8.44533 30.029H7.61549V32.029H8.44533V30.029ZM8.61549 31.029V28.6257H6.61549V31.029H8.61549ZM7.61549 29.6257H9.14474V27.6257H7.61549V29.6257ZM8.14474 28.6257V29.4551H10.1447V28.6257H8.14474ZM9.14474 24.0959H8.44533V26.0959H9.14474V24.0959ZM7.44533 25.0959V26.6694H9.44533V25.0959H7.44533ZM8.44533 25.6694H7.61549V27.6694H8.44533V25.6694ZM8.61549 26.6694V24.2657H6.61549V26.6694H8.61549ZM7.61549 25.2657H9.14474V23.2657H7.61549V25.2657ZM8.14474 24.2657V25.0959H10.1447V24.2657H8.14474ZM12.686 28.4551H11.9866V30.4551H12.686V28.4551ZM10.9866 29.4551V31.029H12.9866V29.4551H10.9866ZM11.9866 30.029H11.1568V32.029H11.9866V30.029ZM12.1568 31.029V28.6257H10.1568V31.029H12.1568ZM11.1568 29.6257H12.686V27.6257H11.1568V29.6257ZM11.686 28.6257V29.4551H13.686V28.6257H11.686ZM12.686 24.0959H11.9866V26.0959H12.686V24.0959ZM10.9866 25.0959V26.6694H12.9866V25.0959H10.9866ZM11.9866 25.6694H11.1568V27.6694H11.9866V25.6694ZM12.1568 26.6694V24.2657H10.1568V26.6694H12.1568ZM11.1568 25.2657H12.686V23.2657H11.1568V25.2657ZM11.686 24.2657V25.0959H13.686V24.2657H11.686ZM16.2281 28.4551H15.5287V30.4551H16.2281V28.4551ZM14.5287 29.4551V31.029H16.5287V29.4551H14.5287ZM15.5287 30.029H14.6989V32.029H15.5287V30.029ZM15.6989 31.029V28.6257H13.6989V31.029H15.6989ZM14.6989 29.6257H16.2281V27.6257H14.6989V29.6257ZM15.2281 28.6257V29.4551H17.2281V28.6257H15.2281ZM16.2281 24.0959H15.5287V26.0959H16.2281V24.0959ZM14.5287 25.0959V26.6694H16.5287V25.0959H14.5287ZM15.5287 25.6694H14.6989V27.6694H15.5287V25.6694ZM15.6989 26.6694V24.2657H13.6989V26.6694H15.6989ZM14.6989 25.2657H16.2281V23.2657H14.6989V25.2657ZM15.2281 24.2657V25.0959H17.2281V24.2657H15.2281ZM21.4114 28.4193H20.7124V30.4193H21.4114V28.4193ZM19.7124 29.4193V30.9927H21.7124V29.4193H19.7124ZM20.7124 29.9927H19.8826V31.9927H20.7124V29.9927ZM20.8826 30.9927V28.5894H18.8826V30.9927H20.8826ZM19.8826 29.5894H21.4114V27.5894H19.8826V29.5894ZM20.4114 28.5894V29.4193H22.4114V28.5894H20.4114ZM21.4114 24.0959H20.7124V26.0959H21.4114V24.0959ZM19.7124 25.0959V26.6694H21.7124V25.0959H19.7124ZM20.7124 25.6694H19.8826V27.6694H20.7124V25.6694ZM20.8826 26.6694V24.2657H18.8826V26.6694H20.8826ZM19.8826 25.2657H21.4114V23.2657H19.8826V25.2657ZM20.4114 24.2657V25.0959H22.4114V24.2657H20.4114ZM26.6782 28.4193H25.9792V30.4193H26.6782V28.4193ZM24.9792 29.4193V30.9927H26.9792V29.4193H24.9792ZM25.9792 29.9927H25.1494V31.9927H25.9792V29.9927ZM26.1494 30.9927V28.5894H24.1494V30.9927H26.1494ZM25.1494 29.5894H26.6782V27.5894H25.1494V29.5894ZM25.6782 28.5894V29.4193H27.6782V28.5894H25.6782ZM26.6782 24.0959H25.9792V26.0959H26.6782V24.0959ZM24.9792 25.0959V26.6694H26.9792V25.0959H24.9792ZM25.9792 25.6694H25.1494V27.6694H25.9792V25.6694ZM26.1494 26.6694V24.2657H24.1494V26.6694H26.1494ZM25.1494 25.2657H26.6782V23.2657H25.1494V25.2657ZM25.6782 24.2657V25.0959H27.6782V24.2657H25.6782ZM32.0935 28.4193H31.3941V30.4193H32.0935V28.4193ZM30.3941 29.4193V30.9927H32.3941V29.4193H30.3941ZM31.3941 29.9927H30.5643V31.9927H31.3941V29.9927ZM31.5643 30.9927V28.5894H29.5643V30.9927H31.5643ZM30.5643 29.5894H32.0935V27.5894H30.5643V29.5894ZM31.0935 28.5894V29.4193H33.0935V28.5894H31.0935ZM32.0935 24.0959H31.3941V26.0959H32.0935V24.0959ZM30.3941 25.0959V26.6694H32.3941V25.0959H30.3941ZM31.3941 25.6694H30.5643V27.6694H31.3941V25.6694ZM31.5643 26.6694V24.2657H29.5643V26.6694H31.5643ZM30.5643 25.2657H32.0935V23.2657H30.5643V25.2657ZM31.0935 24.2657V25.0959H33.0935V24.2657H31.0935ZM37.1972 28.4551H36.4978V30.4551H37.1972V28.4551ZM35.4978 29.4551V31.029H37.4978V29.4551H35.4978ZM36.4978 30.029H35.668V32.029H36.4978V30.029ZM36.668 31.029V28.6257H34.668V31.029H36.668ZM35.668 29.6257H37.1972V27.6257H35.668V29.6257ZM36.1972 28.6257V29.4551H38.1972V28.6257H36.1972ZM37.1972 24.0959H36.4978V26.0959H37.1972V24.0959ZM35.4978 25.0959V26.6694H37.4978V25.0959H35.4978ZM36.4978 25.6694H35.668V27.6694H36.4978V25.6694ZM36.668 26.6694V24.2657H34.668V26.6694H36.668ZM35.668 25.2657H37.1972V23.2657H35.668V25.2657ZM36.1972 24.2657V25.0959H38.1972V24.2657H36.1972ZM40.7389 28.4551H40.0391V30.4551H40.7389V28.4551ZM39.0391 29.4551V31.029H41.0391V29.4551H39.0391ZM40.0391 30.029H39.2097V32.029H40.0391V30.029ZM40.2097 31.029V28.6257H38.2097V31.029H40.2097ZM39.2097 29.6257H40.7389V27.6257H39.2097V29.6257ZM39.7389 28.6257V29.4551H41.7389V28.6257H39.7389ZM40.7389 24.0959H40.0391V26.0959H40.7389V24.0959ZM39.0391 25.0959V26.6694H41.0391V25.0959H39.0391ZM40.0391 25.6694H39.2097V27.6694H40.0391V25.6694ZM40.2097 26.6694V24.2657H38.2097V26.6694H40.2097ZM39.2097 25.2657H40.7389V23.2657H39.2097V25.2657ZM39.7389 24.2657V25.0959H41.7389V24.2657H39.7389ZM44.2806 28.4551H43.5812V30.4551H44.2806V28.4551ZM42.5812 29.4551V31.029H44.5812V29.4551H42.5812ZM43.5812 30.029H42.7514V32.029H43.5812V30.029ZM43.7514 31.029V28.6257H41.7514V31.029H43.7514ZM42.7514 29.6257H44.2806V27.6257H42.7514V29.6257ZM43.2806 28.6257V29.4551H45.2806V28.6257H43.2806ZM44.2806 24.0959H43.5812V26.0959H44.2806V24.0959ZM42.5812 25.0959V26.6694H44.5812V25.0959H42.5812ZM43.5812 25.6694H42.7514V27.6694H43.5812V25.6694ZM43.7514 26.6694V24.2657H41.7514V26.6694H43.7514ZM42.7514 25.2657H44.2806V23.2657H42.7514V25.2657ZM43.2806 24.2657V25.0959H45.2806V24.2657H43.2806ZM16.0756 20.1462L6.02564 20.1466L6.02573 22.1466L16.0757 22.1462L16.0756 20.1462ZM45.866 20.1466L35.8736 20.1462L35.8735 22.1462L45.866 22.1466L45.866 20.1466Z" fill="black" mask="url(#path-2-outside-1_1_20)"/>
<path d="M4.5 21.655V22.155H5H47H47.5V21.655V21.2132V20.3287V19.8287H47H5H4.5V20.3287V21.2132V21.655Z" fill="white" stroke="black"/>
<rect x="24.4525" y="19.0024" width="3.09474" height="3.09474" fill="white" stroke="black"/>
</svg>
