<svg width="52" height="52" viewBox="0 0 52 52" fill="none" xmlns="http://www.w3.org/2000/svg">
<circle cx="26" cy="26" r="25" fill="white" stroke="#172343" stroke-width="2"/>
<path fill-rule="evenodd" clip-rule="evenodd" d="M46.5239 21.1466H45.866V19.9582H35.5185H34.8143V20.162H35.8735V21.1462H34.8143V22.3566H35.0579V22.362H34.8143V22.4451H32.6294H29.8043H27.3758H24.5508H22.1223H19.2972H17.073V22.362H16.8692V22.3566H17.073V21.1462H16.0756V20.162H17.073V19.7982L16.5487 20.162H6.02568V21.1466H5.41469C5.18568 21.1466 5 21.3323 5 21.5613C5 21.7903 5.18613 21.976 5.41469 21.976H6.02568V23.1918V33.0357H16.8692H19.2972H22.1223H24.5508H27.3758H29.8043H32.6294H35.0579H45.866V23.1918V21.976H46.5239C46.7529 21.976 46.939 21.7899 46.939 21.5613C46.9394 21.3323 46.7529 21.1466 46.5239 21.1466ZM45.0366 21.1466H44.0671V20.1625H45.0366V21.1466ZM38.5505 21.1466V20.1625H39.5598V21.1466H38.5505ZM40.3892 20.1625H41.3985V21.1466H40.3892V20.1625ZM42.2279 20.1625H43.2372V21.1466H42.2279V20.1625ZM36.7038 20.1625H37.7207V21.1466H36.7038V20.1625ZM29.005 23.1918V32.9911H28.1747V23.1918H29.005ZM23.7515 23.1918V32.9911H22.9216V23.1918H23.7515ZM12.3986 21.1466V20.1625H13.4071V21.1466H12.3986ZM11.5688 21.1466H10.5599V20.1625H11.5688V21.1466ZM9.73008 21.1466H8.71236V20.1625H9.73008V21.1466ZM15.2462 21.1466H14.2369V20.1625H15.2462V21.1466ZM7.88253 20.1625V21.1466H6.85552V20.1625H7.88253ZM9.14474 29.4551H8.44533V31.029H7.61549V28.6257H9.14474V29.4551ZM9.14474 25.0959H8.44533V26.6694H7.61549V24.2657H9.14474V25.0959ZM12.686 29.4551H11.9866V31.029H11.1568V28.6257H12.686V29.4551ZM12.686 25.0959H11.9866V26.6694H11.1568V24.2657H12.686V25.0959ZM16.2281 29.4551H15.5287V31.029H14.6989V28.6257H16.2281V29.4551ZM16.2281 25.0959H15.5287V26.6694H14.6989V24.2657H16.2281V25.0959ZM21.4114 29.4193H20.7124V30.9927H19.8826V28.5894H21.4114V29.4193ZM21.4114 25.0959H20.7124V26.6694H19.8826V24.2657H21.4114V25.0959ZM26.6782 29.4193H25.9792V30.9927H25.1494V28.5894H26.6782V29.4193ZM26.6782 25.0959H25.9792V26.6694H25.1494V24.2657H26.6782V25.0959ZM32.0935 29.4193H31.3941V30.9927H30.5643V28.5894H32.0935V29.4193ZM32.0935 25.0959H31.3941V26.6694H30.5643V24.2657H32.0935V25.0959ZM37.1972 29.4551H36.4978V31.029H35.668V28.6257H37.1972V29.4551ZM37.1972 25.0959H36.4978V26.6694H35.668V24.2657H37.1972V25.0959ZM40.7389 29.4551H40.0391V31.029H39.2097V28.6257H40.7389V29.4551ZM40.7389 25.0959H40.0391V26.6694H39.2097V24.2657H40.7389V25.0959ZM44.2806 29.4551H43.5812V31.029H42.7514V28.6257H44.2806V29.4551ZM44.2806 25.0959H43.5812V26.6694H42.7514V24.2657H44.2806V25.0959Z" fill="black"/>
<path d="M4.5 21.655V22.155H5H47H47.5V21.655V21.2132V20.3287V19.8287H47H5H4.5V20.3287V21.2132V21.655Z" fill="black" stroke="#F5F5F5"/>
<rect x="24.4525" y="19.0024" width="3.09474" height="3.09474" fill="black"/>
</svg>
