<svg xmlns="http://www.w3.org/2000/svg" width="52" height="52" fill="none"><circle cx="26" cy="26" r="25" fill="#fff" stroke="#172343" stroke-width="2"/><path fill="#000" d="M24.869 29.649c-.025.002-2.526.176-3.835.176a.334.334 0 0 0 0 .669l.18-.001v1.986a.334.334 0 0 0 .67 0v-2.001c.242-.008.496-.018.748-.03v2.031a.334.334 0 0 0 .669 0v-2.064l.748-.043v2.107a.334.334 0 0 0 .669 0v-2.15l.198-.013a.334.334 0 1 0-.047-.667ZM19.66 34.206h-1.771l1.123-2.175a.334.334 0 0 0-.595-.307l-1.373 2.663a.334.334 0 0 0 .297.487h2.319a.334.334 0 1 0 0-.668Z"/><path fill="#000" d="M32.425 27.926c-1.81 0-3.208-2.078-3.266-2.166a.334.334 0 1 1 .557-.37c.012.019 1.259 1.868 2.709 1.868 1.553 0 3.106-2.198 3.337-2.538.37-1.961.643-4.56.835-6.979-.603.506-1.742 1.109-3.743 1.109a.334.334 0 0 1 0-.669c2.488 0 3.572-1.175 3.824-1.502.221-3.055.314-5.597.322-5.812v-.012c0-2.02-4.8-2.35-5.762-2.395a.332.332 0 0 0-.35.334v3.787c-2.605-.02-7.041-.253-7.088-.256a.335.335 0 0 0-.352.334v8.245c0 1.356.243 2.57.639 3.654-1.327.054-2.828.104-3.975.113v-3.787a.334.334 0 0 0-.35-.334c-.962.045-5.762.374-5.762 2.395v.012c.016.449.401 11.038 1.558 15.278.851 3.123 3.163 5.657 4.22 5.657a.333.333 0 0 0 .128-.026c.077-.031 7.646-3.265 7.646-10.873V29.46c1.795 1.57 3.506 2.303 3.542 2.318a.336.336 0 0 0 .128.025c1.044 0 3.308-2.473 4.185-5.542-.721.788-1.792 1.666-2.982 1.666Zm-.868-18.778c2.042.144 4.65.712 4.77 1.64a1.098 1.098 0 0 1-.028.049l-.029.045a1.448 1.448 0 0 1-.12.162 1.7 1.7 0 0 1-.073.083c-.015.017-.028.033-.045.05a2.709 2.709 0 0 1-.151.146l-.046.037a3.139 3.139 0 0 1-.145.118l-.083.06a3.449 3.449 0 0 1-.15.102c-.034.022-.072.043-.108.065a4.454 4.454 0 0 1-.502.256c-.048.021-.097.043-.148.063-.076.031-.159.06-.243.09-.052.02-.103.038-.158.056-.101.032-.21.063-.32.092-.047.013-.09.026-.138.038-.161.04-.333.077-.515.11-.037.008-.078.012-.115.018a9.58 9.58 0 0 1-.467.068c-.072.009-.15.015-.224.022-.138.014-.279.026-.426.036l-.276.013c-.085.003-.174.005-.262.006V9.148h.002Zm-.216 13.414h1.77l-1.122-2.175a.334.334 0 1 1 .593-.306l1.374 2.662a.336.336 0 0 1-.297.488h-2.318a.334.334 0 0 1 0-.67Zm-4.457 10.432c0 6.767-6.406 9.88-7.163 10.224-.568-.117-2.357-1.844-3.28-4.419.353-.465 1.399-1.692 2.58-1.692 1.45 0 2.696 1.849 2.709 1.868a.335.335 0 0 0 .557-.37c-.058-.088-1.455-2.166-3.266-2.166-1.26 0-2.292.977-2.823 1.601-.534-1.973-.904-5.426-1.146-8.534.531.456 1.57.988 3.54.988.184 0 .334-.15.334-.334 0-.185-.15-.33-.334-.335-3.097-.083-3.552-1.41-3.555-1.416a.33.33 0 0 0-.075-.114 182.269 182.269 0 0 1-.251-4.36l.086.071.042.034a4.348 4.348 0 0 0 .598.397l.047.025c.104.056.214.111.333.166l.05.023c.126.056.262.11.405.162l.09.032c.146.051.3.1.464.145l.083.02c.165.044.339.085.523.121l.042.01c.19.036.395.067.608.095l.123.016c.212.025.434.045.667.06l.13.007c.247.013.504.022.776.022 1.252 0 3.053-.062 4.573-.124.648 1.465 1.573 2.666 2.533 3.62v4.157Zm-.354-14.322a.334.334 0 0 1-.31-.357.326.326 0 0 1 .357-.31l.152.01v-1.874a.334.334 0 0 1 .668 0v1.917l.749.043v-1.96a.334.334 0 0 1 .668 0v1.993c.253.012.506.023.75.03v-2.023a.334.334 0 0 1 .668 0v2.039l.18.001a.334.334 0 0 1 0 .669c-1.333 0-3.779-.17-3.882-.178Z"/></svg>