<svg width="52" height="52" viewBox="0 0 52 52" fill="none" xmlns="http://www.w3.org/2000/svg">
<circle cx="26" cy="26" r="25" fill="white" stroke="#172343" stroke-width="2"/>
<path d="M38.5656 38.9991H13.4333C13.3184 38.9991 13.2082 38.9534 13.1269 38.8722C13.0457 38.7909 13 38.6807 13 38.5658V28.5995C13 28.4846 13.0457 28.3743 13.1269 28.2931C13.2082 28.2118 13.3184 28.1662 13.4333 28.1662H38.5656C38.6806 28.1662 38.7908 28.2118 38.872 28.2931C38.9533 28.3743 38.999 28.4846 38.999 28.5995V38.5658C38.999 38.6807 38.9533 38.7909 38.872 38.8722C38.7908 38.9534 38.6806 38.9991 38.5656 38.9991ZM13.8666 38.1324H38.1323V29.0328H13.8666V38.1324Z" fill="black"/>
<path d="M32.9336 29.0328H19.0675C18.9526 29.0328 18.8424 28.9871 18.7611 28.9059C18.6798 28.8246 18.6342 28.7144 18.6342 28.5995V25.5663C18.6342 25.4513 18.6798 25.3411 18.7611 25.2599C18.8424 25.1786 18.9526 25.1329 19.0675 25.1329H32.9336C33.0485 25.1329 33.1588 25.1786 33.24 25.2599C33.3213 25.3411 33.3669 25.4513 33.3669 25.5663V28.5995C33.3669 28.7144 33.3213 28.8246 33.24 28.9059C33.1588 28.9871 33.0485 29.0328 32.9336 29.0328ZM19.5008 28.1662H32.5003V25.9996H19.5008V28.1662Z" fill="black"/>
<path d="M31.632 25.9996H20.3658C20.2509 25.9996 20.1407 25.9539 20.0594 25.8727C19.9782 25.7914 19.9325 25.6812 19.9325 25.5663V23.833C19.9325 23.7181 19.9782 23.6079 20.0594 23.5266C20.1407 23.4453 20.2509 23.3997 20.3658 23.3997H31.632C31.747 23.3997 31.8572 23.4453 31.9385 23.5266C32.0197 23.6079 32.0654 23.7181 32.0654 23.833V25.5663C32.0654 25.6812 32.0197 25.7914 31.9385 25.8727C31.8572 25.9539 31.747 25.9996 31.632 25.9996ZM20.7991 25.133H31.1987V24.2663H20.7991V25.133Z" fill="black"/>
<path d="M38.5663 29.0328H34.2332C34.1183 29.0328 34.008 28.9871 33.9268 28.9059C33.8455 28.8246 33.7999 28.7144 33.7999 28.5995V17.7666C33.7999 17.6516 33.8455 17.5414 33.9268 17.4602C34.008 17.3789 34.1183 17.3333 34.2332 17.3333H38.5663C38.6813 17.3333 38.7915 17.3789 38.8727 17.4602C38.954 17.5414 38.9997 17.6516 38.9997 17.7666V28.5995C38.9997 28.7144 38.954 28.8246 38.8727 28.9059C38.7915 28.9871 38.6813 29.0328 38.5663 29.0328ZM34.6665 28.1662H38.133V18.1999H34.6665V28.1662Z" fill="black"/>
<path d="M17.7665 29.0328H13.4333C13.3184 29.0328 13.2082 28.9871 13.1269 28.9059C13.0457 28.8246 13 28.7144 13 28.5995V17.7666C13 17.6516 13.0457 17.5414 13.1269 17.4602C13.2082 17.3789 13.3184 17.3333 13.4333 17.3333H17.7665C17.8814 17.3333 17.9916 17.3789 18.0729 17.4602C18.1541 17.5414 18.1998 17.6516 18.1998 17.7666V28.5995C18.1998 28.7144 18.1541 28.8246 18.0729 28.9059C17.9916 28.9871 17.8814 29.0328 17.7665 29.0328ZM13.8666 28.1662H17.3332V18.1999H13.8666V28.1662Z" fill="black"/>
<path d="M31.632 24.2663H20.3658C20.2509 24.2663 20.1407 24.2207 20.0594 24.1394C19.9782 24.0581 19.9325 23.9479 19.9325 23.833V23.3997C19.9325 21.7908 20.5717 20.2477 21.7093 19.1101C22.847 17.9724 24.39 17.3333 25.9989 17.3333C27.6079 17.3333 29.1509 17.9724 30.2886 19.1101C31.4262 20.2477 32.0654 21.7908 32.0654 23.3997V23.833C32.0654 23.9479 32.0197 24.0581 31.9385 24.1394C31.8572 24.2207 31.747 24.2663 31.632 24.2663ZM20.7991 23.3997H31.1987C31.1987 22.0206 30.6509 20.698 29.6758 19.7229C28.7006 18.7477 27.378 18.1999 25.9989 18.1999C24.6199 18.1999 23.2973 18.7477 22.3221 19.7229C21.347 20.698 20.7991 22.0206 20.7991 23.3997Z" fill="black"/>
<path d="M38.5663 18.1999H34.2332C34.1183 18.1999 34.008 18.1543 33.9268 18.073C33.8455 17.9917 33.7999 17.8815 33.7999 17.7666V17.3333C33.7999 16.6437 34.0738 15.9825 34.5613 15.4949C35.0489 15.0073 35.7102 14.7334 36.3998 14.7334C37.0893 14.7334 37.7506 15.0073 38.2382 15.4949C38.7257 15.9825 38.9997 16.6437 38.9997 17.3333V17.7666C38.9997 17.8815 38.954 17.9917 38.8727 18.073C38.7915 18.1543 38.6813 18.1999 38.5663 18.1999ZM34.6665 17.3333H38.133C38.133 16.8736 37.9504 16.4327 37.6254 16.1077C37.3003 15.7826 36.8594 15.6 36.3998 15.6C35.9401 15.6 35.4992 15.7826 35.1742 16.1077C34.8491 16.4327 34.6665 16.8736 34.6665 17.3333Z" fill="black"/>
<path d="M17.7665 18.1999H13.4333C13.3184 18.1999 13.2082 18.1543 13.1269 18.073C13.0457 17.9917 13 17.8815 13 17.7666V17.3333C13 16.6437 13.2739 15.9825 13.7615 15.4949C14.2491 15.0073 14.9104 14.7334 15.5999 14.7334C16.2894 14.7334 16.9507 15.0073 17.4383 15.4949C17.9259 15.9825 18.1998 16.6437 18.1998 17.3333V17.7666C18.1998 17.8815 18.1541 17.9917 18.0729 18.073C17.9916 18.1543 17.8814 18.1999 17.7665 18.1999ZM13.8666 17.3333H17.3332C17.3332 16.8736 17.1505 16.4327 16.8255 16.1077C16.5004 15.7826 16.0596 15.6 15.5999 15.6C15.1402 15.6 14.6993 15.7826 14.3743 16.1077C14.0492 16.4327 13.8666 16.8736 13.8666 17.3333Z" fill="black"/>
<path d="M15.5995 15.6C15.4846 15.6 15.3744 15.5543 15.2931 15.4731C15.2119 15.3918 15.1662 15.2816 15.1662 15.1667V13.4334C15.1662 13.3185 15.2119 13.2083 15.2931 13.127C15.3744 13.0457 15.4846 13.0001 15.5995 13.0001C15.7144 13.0001 15.8247 13.0457 15.9059 13.127C15.9872 13.2083 16.0328 13.3185 16.0328 13.4334V15.1667C16.0328 15.2816 15.9872 15.3918 15.9059 15.4731C15.8247 15.5543 15.7144 15.6 15.5995 15.6Z" fill="black"/>
<path d="M36.3994 15.6C36.2845 15.6 36.1742 15.5543 36.093 15.4731C36.0117 15.3918 35.9661 15.2816 35.9661 15.1667V13.4334C35.9661 13.3185 36.0117 13.2083 36.093 13.127C36.1742 13.0457 36.2845 13.0001 36.3994 13.0001C36.5143 13.0001 36.6245 13.0457 36.7058 13.127C36.787 13.2083 36.8327 13.3185 36.8327 13.4334V15.1667C36.8327 15.2816 36.787 15.3918 36.7058 15.4731C36.6245 15.5543 36.5143 15.6 36.3994 15.6Z" fill="black"/>
<path d="M15.5999 22.0997H13.4333C13.3184 22.0997 13.2082 22.0541 13.1269 21.9728C13.0457 21.8916 13 21.7813 13 21.6664V17.7666C13 17.6516 13.0457 17.5414 13.1269 17.4602C13.2082 17.3789 13.3184 17.3333 13.4333 17.3333H15.5999C15.7148 17.3333 15.825 17.3789 15.9063 17.4602C15.9876 17.5414 16.0332 17.6516 16.0332 17.7666V21.6664C16.0332 21.7813 15.9876 21.8916 15.9063 21.9728C15.825 22.0541 15.7148 22.0997 15.5999 22.0997ZM13.8666 21.2331H15.1666V18.1999H13.8666V21.2331Z" fill="black"/>
<path d="M17.7661 22.0997H15.5995C15.4846 22.0997 15.3744 22.0541 15.2931 21.9728C15.2119 21.8916 15.1662 21.7813 15.1662 21.6664V17.7666C15.1662 17.6516 15.2119 17.5414 15.2931 17.4602C15.3744 17.3789 15.4846 17.3333 15.5995 17.3333H17.7661C17.881 17.3333 17.9912 17.3789 18.0725 17.4602C18.1538 17.5414 18.1994 17.6516 18.1994 17.7666V21.6664C18.1994 21.7813 18.1538 21.8916 18.0725 21.9728C17.9912 22.0541 17.881 22.0997 17.7661 22.0997ZM16.0328 21.2331H17.3328V18.1999H16.0328V21.2331Z" fill="black"/>
<path d="M36.3998 22.0997H34.2332C34.1183 22.0997 34.008 22.0541 33.9268 21.9728C33.8455 21.8916 33.7999 21.7813 33.7999 21.6664V17.7666C33.7999 17.6516 33.8455 17.5414 33.9268 17.4602C34.008 17.3789 34.1183 17.3333 34.2332 17.3333H36.3998C36.5147 17.3333 36.6249 17.3789 36.7062 17.4602C36.7874 17.5414 36.8331 17.6516 36.8331 17.7666V21.6664C36.8331 21.7813 36.7874 21.8916 36.7062 21.9728C36.6249 22.0541 36.5147 22.0997 36.3998 22.0997ZM34.6665 21.2331H35.9664V18.1999H34.6665V21.2331Z" fill="black"/>
<path d="M38.566 22.0997H36.3994C36.2845 22.0997 36.1742 22.0541 36.093 21.9728C36.0117 21.8916 35.9661 21.7813 35.9661 21.6664V17.7666C35.9661 17.6516 36.0117 17.5414 36.093 17.4602C36.1742 17.3789 36.2845 17.3333 36.3994 17.3333H38.566C38.6809 17.3333 38.7911 17.3789 38.8724 17.4602C38.9536 17.5414 38.9993 17.6516 38.9993 17.7666V21.6664C38.9993 21.7813 38.9536 21.8916 38.8724 21.9728C38.7911 22.0541 38.6809 22.0997 38.566 22.0997ZM36.8327 21.2331H38.1326V18.1999H36.8327V21.2331Z" fill="black"/>
<path d="M28.1658 38.9991H23.8327C23.7177 38.9991 23.6075 38.9534 23.5263 38.8721C23.445 38.7909 23.3994 38.6807 23.3994 38.5657V33.3659C23.3994 32.6764 23.6733 32.0151 24.1608 31.5275C24.6484 31.04 25.3097 30.7661 25.9992 30.7661C26.6888 30.7661 27.3501 31.04 27.8377 31.5275C28.3252 32.0151 28.5991 32.6764 28.5991 33.3659V38.5657C28.5991 38.6807 28.5535 38.7909 28.4722 38.8721C28.391 38.9534 28.2808 38.9991 28.1658 38.9991ZM24.266 38.1324H27.7325V33.3659C27.7325 32.9063 27.5499 32.4654 27.2249 32.1403C26.8998 31.8153 26.4589 31.6327 25.9992 31.6327C25.5396 31.6327 25.0987 31.8153 24.7736 32.1403C24.4486 32.4654 24.266 32.9063 24.266 33.3659V38.1324Z" fill="black"/>
<path d="M20.3661 38.9991H16.4662C16.3513 38.9991 16.2411 38.9534 16.1598 38.8721C16.0786 38.7909 16.0329 38.6807 16.0329 38.5657V34.0159C16.0329 33.3839 16.284 32.7777 16.7309 32.3307C17.1779 31.8838 17.7841 31.6327 18.4161 31.6327C19.0482 31.6327 19.6544 31.8838 20.1013 32.3307C20.5483 32.7777 20.7994 33.3839 20.7994 34.0159V38.5657C20.7994 38.6807 20.7537 38.7909 20.6725 38.8721C20.5912 38.9534 20.481 38.9991 20.3661 38.9991ZM16.8995 38.1324H19.9327V34.0159C19.9327 33.6137 19.773 33.2279 19.4885 32.9435C19.2041 32.6591 18.8184 32.4993 18.4161 32.4993C18.0139 32.4993 17.6282 32.6591 17.3437 32.9435C17.0593 33.2279 16.8995 33.6137 16.8995 34.0159V38.1324Z" fill="black"/>
<path d="M35.5317 38.9991H31.6319C31.517 38.9991 31.4068 38.9534 31.3255 38.8721C31.2442 38.7909 31.1986 38.6807 31.1986 38.5657V34.0159C31.1986 33.3839 31.4497 32.7777 31.8966 32.3307C32.3436 31.8838 32.9497 31.6327 33.5818 31.6327C34.2139 31.6327 34.8201 31.8838 35.267 32.3307C35.714 32.7777 35.9651 33.3839 35.9651 34.0159V38.5657C35.9651 38.6807 35.9194 38.7909 35.8381 38.8721C35.7569 38.9534 35.6467 38.9991 35.5317 38.9991ZM32.0652 38.1324H35.0984V34.0159C35.0984 33.6137 34.9386 33.2279 34.6542 32.9435C34.3698 32.6591 33.984 32.4993 33.5818 32.4993C33.1796 32.4993 32.7938 32.6591 32.5094 32.9435C32.225 33.2279 32.0652 33.6137 32.0652 34.0159V38.1324Z" fill="black"/>
<path d="M20.7986 27.7328C20.6837 27.7328 20.5735 27.6872 20.4922 27.6059C20.4109 27.5247 20.3653 27.4144 20.3653 27.2995V26.8662C20.3653 26.7513 20.4109 26.6411 20.4922 26.5598C20.5735 26.4785 20.6837 26.4329 20.7986 26.4329C20.9135 26.4329 21.0237 26.4785 21.105 26.5598C21.1863 26.6411 21.2319 26.7513 21.2319 26.8662V27.2995C21.2319 27.4144 21.1863 27.5247 21.105 27.6059C21.0237 27.6872 20.9135 27.7328 20.7986 27.7328Z" fill="black"/>
<path d="M22.5332 27.7328C22.4183 27.7328 22.308 27.6872 22.2268 27.6059C22.1455 27.5247 22.0999 27.4144 22.0999 27.2995V26.8662C22.0999 26.7513 22.1455 26.6411 22.2268 26.5598C22.308 26.4785 22.4183 26.4329 22.5332 26.4329C22.6481 26.4329 22.7583 26.4785 22.8396 26.5598C22.9208 26.6411 22.9665 26.7513 22.9665 26.8662V27.2995C22.9665 27.4144 22.9208 27.5247 22.8396 27.6059C22.7583 27.6872 22.6481 27.7328 22.5332 27.7328Z" fill="black"/>
<path d="M24.2666 27.7328C24.1517 27.7328 24.0415 27.6872 23.9602 27.6059C23.8789 27.5247 23.8333 27.4144 23.8333 27.2995V26.8662C23.8333 26.7513 23.8789 26.6411 23.9602 26.5598C24.0415 26.4785 24.1517 26.4329 24.2666 26.4329C24.3815 26.4329 24.4917 26.4785 24.573 26.5598C24.6543 26.6411 24.6999 26.7513 24.6999 26.8662V27.2995C24.6999 27.4144 24.6543 27.5247 24.573 27.6059C24.4917 27.6872 24.3815 27.7328 24.2666 27.7328Z" fill="black"/>
<path d="M26 27.7328C25.8851 27.7328 25.7749 27.6872 25.6936 27.6059C25.6124 27.5247 25.5667 27.4144 25.5667 27.2995V26.8662C25.5667 26.7513 25.6124 26.6411 25.6936 26.5598C25.7749 26.4785 25.8851 26.4329 26 26.4329C26.1149 26.4329 26.2252 26.4785 26.3064 26.5598C26.3877 26.6411 26.4333 26.7513 26.4333 26.8662V27.2995C26.4333 27.4144 26.3877 27.5247 26.3064 27.6059C26.2252 27.6872 26.1149 27.7328 26 27.7328Z" fill="black"/>
<path d="M27.7334 27.7328C27.6185 27.7328 27.5083 27.6872 27.427 27.6059C27.3458 27.5247 27.3001 27.4144 27.3001 27.2995V26.8662C27.3001 26.7513 27.3458 26.6411 27.427 26.5598C27.5083 26.4785 27.6185 26.4329 27.7334 26.4329C27.8484 26.4329 27.9586 26.4785 28.0398 26.5598C28.1211 26.6411 28.1667 26.7513 28.1667 26.8662V27.2995C28.1667 27.4144 28.1211 27.5247 28.0398 27.6059C27.9586 27.6872 27.8484 27.7328 27.7334 27.7328Z" fill="black"/>
<path d="M29.4657 27.7328C29.3508 27.7328 29.2406 27.6872 29.1593 27.6059C29.078 27.5247 29.0324 27.4144 29.0324 27.2995V26.8662C29.0324 26.7513 29.078 26.6411 29.1593 26.5598C29.2406 26.4785 29.3508 26.4329 29.4657 26.4329C29.5806 26.4329 29.6908 26.4785 29.7721 26.5598C29.8534 26.6411 29.899 26.7513 29.899 26.8662V27.2995C29.899 27.4144 29.8534 27.5247 29.7721 27.6059C29.6908 27.6872 29.5806 27.7328 29.4657 27.7328Z" fill="black"/>
<path d="M31.1991 27.7328C31.0842 27.7328 30.974 27.6872 30.8927 27.6059C30.8115 27.5247 30.7658 27.4144 30.7658 27.2995V26.8662C30.7658 26.7513 30.8115 26.6411 30.8927 26.5598C30.974 26.4785 31.0842 26.4329 31.1991 26.4329C31.314 26.4329 31.4243 26.4785 31.5055 26.5598C31.5868 26.6411 31.6324 26.7513 31.6324 26.8662V27.2995C31.6324 27.4144 31.5868 27.5247 31.5055 27.6059C31.4243 27.6872 31.314 27.7328 31.1991 27.7328Z" fill="black"/>
<path d="M26 18.1999C25.8851 18.1999 25.7749 18.1542 25.6936 18.073C25.6124 17.9917 25.5667 17.8815 25.5667 17.7666V15.6C25.5667 15.4851 25.6124 15.3749 25.6936 15.2936C25.7749 15.2123 25.8851 15.1667 26 15.1667C26.1149 15.1667 26.2252 15.2123 26.3064 15.2936C26.3877 15.3749 26.4333 15.4851 26.4333 15.6V17.7666C26.4333 17.8815 26.3877 17.9917 26.3064 18.073C26.2252 18.1542 26.1149 18.1999 26 18.1999Z" fill="black"/>
<path d="M26.6101 15.9506C26.2591 15.9511 25.9188 15.8299 25.6472 15.6075C25.3756 15.3852 25.1895 15.0755 25.1207 14.7313C25.0518 14.3872 25.1045 14.0297 25.2698 13.7201C25.435 13.4104 25.7025 13.1676 26.0267 13.0331C26.0793 13.0113 26.1357 13 26.1926 13C26.2495 13 26.3059 13.0111 26.3585 13.0329C26.4111 13.0546 26.4589 13.0865 26.4992 13.1267C26.5394 13.1669 26.5714 13.2147 26.5932 13.2672C26.615 13.3198 26.6263 13.3762 26.6263 13.4331C26.6264 13.49 26.6152 13.5464 26.5935 13.599C26.5717 13.6516 26.5399 13.6994 26.4996 13.7397C26.4594 13.7799 26.4117 13.8119 26.3591 13.8337C26.2023 13.9014 26.0785 14.0281 26.0144 14.1864C25.9503 14.3447 25.951 14.5219 26.0165 14.6796C26.082 14.8373 26.2069 14.963 26.3643 15.0293C26.5216 15.0957 26.6988 15.0974 26.8574 15.0342C26.9636 14.9901 27.0829 14.99 27.1892 15.0339C27.2955 15.0778 27.3799 15.1621 27.424 15.2682C27.4681 15.3744 27.4683 15.4937 27.4244 15.6C27.3805 15.7063 27.2962 15.7907 27.19 15.8349C27.0062 15.9112 26.8091 15.9505 26.6101 15.9506Z" fill="black"/>
</svg>
